<svg xmlns="http://www.w3.org/2000/svg" fill="none" viewBox="0 0 16 16" height="16" width="16">
<g clip-path="url(#clip0_1726_99764)">
<path fill="#2E2E2E" d="M4 7.88562C4 7.532 4.14048 7.19286 4.39052 6.94281L6.94281 4.39052C7.19286 4.14048 7.532 4 7.88562 4H14C14.7364 4 15.3333 4.59695 15.3333 5.33333V14C15.3333 14.7364 14.7364 15.3333 14 15.3333H5.33333C4.59695 15.3333 4 14.7364 4 14L4 7.88562Z"></path>
<path fill="#2E2E2E" d="M0.666672 1.99984C0.666672 1.26346 1.26363 0.666504 2.00001 0.666504H4.66667C5.40305 0.666504 6.00001 1.26346 6.00001 1.99984V3.44755C6.00001 3.80117 5.85953 4.14031 5.60948 4.39036L4.39053 5.60931C4.14048 5.85936 3.80134 5.99984 3.44772 5.99984H2.00001C1.26363 5.99984 0.666672 5.40288 0.666672 4.6665V1.99984Z"></path>
</g>
<defs>
<clipPath id="clip0_1726_99764">
<rect fill="white" height="16" width="16"></rect>
</clipPath>
</defs>
</svg>
