<svg xmlns="http://www.w3.org/2000/svg" fill="none" viewBox="0 0 143 40" height="40" width="143">
    <path fill="white" d="M64.4483 21.9419H71.703L67.871 16.3405L60.8256 26.4575H57.6219L66.1905 14.3197C66.3773 14.0775 66.6255 13.8793 66.9144 13.7418C67.2032 13.6043 67.5242 13.5315 67.8505 13.5293C68.1768 13.5272 68.499 13.5959 68.7899 13.7297C69.0809 13.8635 69.3322 14.0584 69.5228 14.2982L78.1152 26.4575H74.9115L73.4025 24.1954H66.062L64.4625 21.9419M97.7517 24.1954V13.6519H95.0287V25.2338C95.0283 25.3948 95.0639 25.5542 95.1334 25.7023C95.203 25.8504 95.305 25.9842 95.4334 26.0956C95.5622 26.2149 95.7163 26.3096 95.8864 26.374C96.0565 26.4384 96.2391 26.4712 96.4235 26.4705H108.8L110.414 24.2084H97.7374M52.733 22.3125C54.0019 22.3125 55.2187 21.8563 56.1159 21.0442C57.0131 20.2321 57.5172 19.1306 57.5172 17.9822C57.5172 16.8337 57.0131 15.7323 56.1159 14.9202C55.2187 14.1081 54.0019 13.6519 52.733 13.6519H40.8322V26.4575H43.5503V15.9183H52.5664C53.1737 15.9183 53.7561 16.1366 54.1855 16.5253C54.6149 16.914 54.8562 17.4411 54.8562 17.9908C54.8562 18.5405 54.6149 19.0676 54.1855 19.4563C53.7561 19.845 53.1737 20.0633 52.5664 20.0633H44.8975L53.0187 26.4575H56.965L51.5096 22.3125H52.733ZM24.1138 26.4575H32.3349C34.1787 26.4142 35.9308 25.7209 37.2179 24.5252C38.505 23.3296 39.2253 21.7262 39.2253 20.0569C39.2253 18.3875 38.505 16.7841 37.2179 15.5885C35.9308 14.3928 34.1787 13.6995 32.3349 13.6562H24.1138C23.1697 13.634 22.2303 13.7832 21.3509 14.0948C20.4716 14.4065 19.67 14.8745 18.9936 15.471C18.3172 16.0676 17.7797 16.7807 17.4126 17.5683C17.0455 18.3559 16.8564 19.202 16.8564 20.0569C16.8564 20.9117 17.0455 21.7578 17.4126 22.5454C17.7797 23.333 18.3172 24.0461 18.9936 24.6427C19.67 25.2392 20.4716 25.7072 21.3509 26.0189C22.2303 26.3305 23.1697 26.4797 24.1138 26.4575ZM32.1493 24.204H24.2947C23.1063 24.1694 21.9795 23.7177 21.1524 22.9445C20.3253 22.1714 19.8629 21.1374 19.8629 20.0612C19.8629 18.985 20.3253 17.951 21.1524 17.1778C21.9795 16.4046 23.1063 15.953 24.2947 15.9183H32.1493C32.7628 15.9004 33.374 15.9943 33.9466 16.1944C34.5192 16.3945 35.0415 16.6968 35.4825 17.0833C35.9234 17.4698 36.2741 17.9325 36.5135 18.4441C36.753 18.9557 36.8764 19.5056 36.8764 20.0612C36.8764 20.6167 36.753 21.1667 36.5135 21.6782C36.2741 22.1898 35.9234 22.6525 35.4825 23.039C35.0415 23.4255 34.5192 23.7278 33.9466 23.9279C33.374 24.1281 32.7628 24.222 32.1493 24.204ZM83.7943 26.4575H92.1868L93.7768 24.204H83.98C83.3665 24.222 82.7553 24.1281 82.1827 23.9279C81.6101 23.7278 81.0878 23.4255 80.6468 23.039C80.2058 22.6525 79.8552 22.1898 79.6157 21.6782C79.3763 21.1667 79.2529 20.6167 79.2529 20.0612C79.2529 19.5056 79.3763 18.9557 79.6157 18.4441C79.8552 17.9325 80.2058 17.4698 80.6468 17.0833C81.0878 16.6968 81.6101 16.3945 82.1827 16.1944C82.7553 15.9943 83.3665 15.9004 83.98 15.9183H91.9536L93.5626 13.6562H83.7943C82.8502 13.634 81.9108 13.7832 81.0314 14.0948C80.1521 14.4065 79.3505 14.8745 78.6741 15.471C77.9977 16.0676 77.4602 16.7807 77.0931 17.5683C76.7261 18.3559 76.537 19.202 76.537 20.0569C76.537 20.9117 76.7261 21.7578 77.0931 22.5454C77.4602 23.333 77.9977 24.0461 78.6741 24.6427C79.3505 25.2392 80.1521 25.7072 81.0314 26.0189C81.9108 26.3305 82.8502 26.4797 83.7943 26.4575ZM117.055 24.204C116.057 24.2044 115.087 23.91 114.292 23.3656C113.496 22.8212 112.918 22.0566 112.647 21.1879H124.272L125.871 18.9301H112.647C112.918 18.0611 113.495 17.2961 114.291 16.7515C115.087 16.207 116.057 15.9129 117.055 15.914H125.033L126.628 13.6519H116.869C115.026 13.6952 113.273 14.3885 111.986 15.5842C110.699 16.7798 109.979 18.3832 109.979 20.0525C109.979 21.7219 110.699 23.3253 111.986 24.5209C113.273 25.7166 115.026 26.4099 116.869 26.4532H125.262L126.856 24.1997H117.05"></path>
</svg>
