<svg width="1004" height="746" viewBox="0 0 1004 746" fill="none" xmlns="http://www.w3.org/2000/svg">
<g opacity="0.5">
<path opacity="0.0164" d="M999.442 426.105C999.04 425.287 998.489 424.476 997.797 423.68C996.156 421.669 993.984 419.965 991.297 418.808V418.809C990.132 418.195 988.857 417.608 987.473 417.055L621.812 271.102C610.76 266.691 592.225 266.691 580.329 271.102L21.3251 478.373C14.8191 480.786 9.90007 483.782 6.81707 486.937V486.935C6.81207 486.94 6.80807 486.946 6.80207 486.951C6.68307 487.073 6.57408 487.197 6.46008 487.319C6.19608 487.601 5.94006 487.895 5.69306 488.203C5.52706 488.41 5.36407 488.615 5.21307 488.823C5.19007 488.855 5.16707 488.887 5.14507 488.918C4.67807 489.576 4.28707 490.235 3.96507 490.886C1.54307 495.791 1.07907 502.196 4.32807 507.045C4.91107 507.915 5.67108 508.762 6.64108 509.566C6.70108 509.616 6.75607 509.669 6.81707 509.718V509.707C7.21507 510.023 7.63306 510.334 8.09606 510.634L360.08 738.528C374.647 747.959 401.885 747.965 420.412 738.528L992.843 446.956C993.415 446.665 993.942 446.363 994.447 446.055V446.06C1001.83 441.903 1003.24 432.949 999.442 426.105Z" fill="black"/>
<path opacity="0.0328" d="M997.866 426.558C997.465 425.742 996.915 424.933 996.225 424.139C994.588 422.133 992.422 420.434 989.742 419.28C988.58 418.667 987.308 418.083 985.928 417.532L621.221 271.959C610.198 267.559 591.711 267.559 579.846 271.959L22.301 478.69C15.812 481.096 10.906 484.085 7.83104 487.232C7.82604 487.237 7.82204 487.242 7.81604 487.247C7.69704 487.369 7.58905 487.492 7.47505 487.614C7.21205 487.895 6.95705 488.188 6.71005 488.495C6.54405 488.701 6.38104 488.906 6.23104 489.113C6.20804 489.145 6.18604 489.176 6.16304 489.208C5.69704 489.864 5.30804 490.521 4.98704 491.171C2.57104 496.063 2.10904 502.451 5.34904 507.288C5.93004 508.156 6.68905 509.001 7.65605 509.803C7.71605 509.853 7.77104 509.906 7.83204 509.955V509.944C8.22904 510.259 8.64604 510.569 9.10804 510.868L360.174 738.167C374.703 747.574 401.87 747.579 420.349 738.167L991.288 447.356C991.858 447.066 992.385 446.764 992.888 446.458V446.463C1000.25 442.314 1001.65 433.384 997.866 426.558Z" fill="black"/>
<path opacity="0.0492" d="M996.291 427.011C995.891 426.197 995.343 425.39 994.655 424.598C993.022 422.597 990.862 420.902 988.189 419.752C987.03 419.141 985.762 418.558 984.385 418.008L620.631 272.816C609.637 268.428 591.199 268.428 579.364 272.816L23.2771 479.006C16.8041 481.406 11.9111 484.387 8.84515 487.526C8.84015 487.531 8.83615 487.536 8.83015 487.541C8.71215 487.663 8.60415 487.785 8.49015 487.907C8.22715 488.187 7.97315 488.48 7.72715 488.786C7.56215 488.992 7.39914 489.196 7.24914 489.403C7.22614 489.434 7.20415 489.466 7.18215 489.497C6.71715 490.152 6.32915 490.807 6.00915 491.455C3.59915 496.334 3.13814 502.706 6.37014 507.529C6.95014 508.395 7.70615 509.237 8.67115 510.037C8.73115 510.087 8.78514 510.14 8.84614 510.189V510.178C9.24214 510.492 9.65815 510.801 10.1192 511.1L360.267 737.805C374.758 747.187 401.854 747.193 420.285 737.805L989.731 447.754C990.3 447.465 990.825 447.164 991.327 446.858V446.863C998.669 442.726 1000.07 433.819 996.291 427.011Z" fill="black"/>
<path opacity="0.0656" d="M994.716 427.463C994.317 426.651 993.77 425.847 993.084 425.057C991.456 423.062 989.301 421.371 986.635 420.223C985.479 419.613 984.214 419.032 982.84 418.484L620.04 273.674C609.075 269.297 590.685 269.297 578.881 273.674L24.252 479.324C17.797 481.718 12.916 484.691 9.85802 487.821V487.819C9.85302 487.824 9.84902 487.83 9.84302 487.835C9.72502 487.956 9.61701 488.079 9.50401 488.2C9.24201 488.48 8.98801 488.771 8.74301 489.077C8.57801 489.282 8.41601 489.486 8.26701 489.692C8.24401 489.723 8.22201 489.755 8.20001 489.786C7.73701 490.439 7.34901 491.092 7.03001 491.739C4.62701 496.605 4.16701 502.96 7.39001 507.771C7.96801 508.634 8.72301 509.474 9.68501 510.273C9.74501 510.322 9.79901 510.375 9.85901 510.424V510.413C10.254 510.726 10.669 511.035 11.129 511.332L360.359 737.443C374.812 746.801 401.837 746.806 420.219 737.443L988.172 448.153C988.739 447.864 989.263 447.564 989.764 447.259V447.264C997.087 443.138 998.483 434.254 994.716 427.463Z" fill="black"/>
<path opacity="0.082" d="M993.141 427.916C992.743 427.106 992.198 426.304 991.513 425.516C989.889 423.526 987.739 421.84 985.081 420.695C983.928 420.087 982.667 419.507 981.297 418.96L619.45 274.53C608.513 270.165 590.172 270.165 578.399 274.53L25.2272 479.639C18.7892 482.026 13.9212 484.992 10.8712 488.114V488.112C10.8662 488.117 10.8622 488.123 10.8562 488.128C10.7382 488.249 10.6312 488.371 10.5182 488.492C10.2572 488.771 10.0042 489.062 9.75917 489.366C9.59417 489.571 9.43316 489.774 9.28416 489.98C9.26116 490.011 9.23916 490.043 9.21716 490.074C8.75516 490.725 8.36817 491.377 8.05017 492.022C5.65317 496.876 5.19416 503.214 8.40916 508.012C8.98616 508.873 9.73816 509.711 10.6982 510.507C10.7582 510.556 10.8122 510.609 10.8722 510.658V510.647C11.2662 510.959 11.6792 511.267 12.1382 511.564L360.45 737.081C374.865 746.414 401.819 746.42 420.153 737.081L986.613 448.551C987.179 448.263 987.701 447.964 988.2 447.659V447.664C995.506 443.549 996.898 434.689 993.141 427.916Z" fill="black"/>
<path opacity="0.0984" d="M991.565 428.369C991.169 427.562 990.624 426.761 989.941 425.975C988.321 423.99 986.177 422.308 983.526 421.167V421.168C982.376 420.561 981.118 419.982 979.751 419.437L618.86 275.387C607.952 271.033 589.659 271.033 577.917 275.387L26.2029 479.956C19.7819 482.337 14.9269 485.295 11.8849 488.409C11.8799 488.414 11.8759 488.419 11.8699 488.424C11.7519 488.545 11.6449 488.666 11.5329 488.787C11.2719 489.065 11.0199 489.355 10.7759 489.659C10.6119 489.863 10.4509 490.066 10.3019 490.271C10.2789 490.302 10.2569 490.334 10.2349 490.365C9.77392 491.014 9.38792 491.664 9.07092 492.308C6.67992 497.149 6.22292 503.47 9.42892 508.256C10.0039 509.115 10.7549 509.951 11.7119 510.745C11.7709 510.794 11.8249 510.847 11.8859 510.896V510.885C12.2789 511.197 12.6909 511.503 13.1489 511.799L360.543 736.721C374.92 746.029 401.803 746.035 420.089 736.721L985.056 448.951C985.62 448.664 986.141 448.366 986.639 448.062V448.067C993.924 443.961 995.313 435.124 991.565 428.369Z" fill="black"/>
<path opacity="0.1148" d="M989.99 428.822C989.594 428.017 989.052 427.218 988.371 426.434C986.756 424.454 984.617 422.777 981.973 421.638C980.826 421.033 979.571 420.456 978.208 419.913L618.268 276.244C607.389 271.902 589.144 271.902 577.433 276.244L27.1791 480.272C20.7741 482.647 15.9331 485.597 12.8981 488.702V488.701C12.8931 488.706 12.8891 488.712 12.8831 488.717C12.7661 488.837 12.6591 488.959 12.5461 489.079C12.2861 489.356 12.0341 489.646 11.7911 489.949C11.6271 490.153 11.4671 490.355 11.3181 490.559C11.2951 490.59 11.2731 490.621 11.2511 490.653C10.7911 491.301 10.4071 491.949 10.0901 492.59C7.70509 497.418 7.2491 503.723 10.4471 508.496C11.0211 509.353 11.7691 510.186 12.7241 510.978C12.7831 511.027 12.8371 511.079 12.8971 511.128V511.117C13.2891 511.428 13.7001 511.734 14.1571 512.029L360.634 736.357C374.973 745.641 401.785 745.646 420.022 736.357L983.497 449.348C984.06 449.062 984.579 448.764 985.076 448.461V448.466C992.343 444.372 993.728 435.559 989.99 428.822Z" fill="black"/>
<path opacity="0.1311" d="M988.415 429.275C988.02 428.472 987.479 427.675 986.8 426.894C985.189 424.919 983.056 423.247 980.419 422.111C979.275 421.508 978.024 420.932 976.664 420.39L617.679 277.101C606.829 272.77 588.632 272.77 576.953 277.101L28.154 480.589C21.766 482.957 16.937 485.9 13.911 488.997V488.995C13.906 489 13.902 489.006 13.896 489.011C13.779 489.131 13.673 489.252 13.56 489.372C13.301 489.649 13.05 489.937 12.807 490.239C12.644 490.442 12.484 490.644 12.335 490.848C12.313 490.879 12.29 490.91 12.268 490.941C11.81 491.587 11.426 492.233 11.11 492.873C8.73198 497.688 8.27699 503.976 11.466 508.737C12.038 509.591 12.785 510.423 13.737 511.212C13.796 511.261 13.85 511.313 13.91 511.362V511.351C14.301 511.661 14.711 511.966 15.166 512.261L360.725 735.994C375.026 745.253 401.767 745.259 419.956 735.994L981.938 449.745C982.499 449.459 983.017 449.163 983.513 448.861V448.866C990.761 444.784 992.143 435.994 988.415 429.275Z" fill="black"/>
<path opacity="0.1475" d="M986.84 429.727C986.447 428.926 985.907 428.132 985.229 427.352C983.622 425.383 981.495 423.714 978.865 422.582V422.583C977.724 421.981 976.476 421.407 975.12 420.866L617.088 277.958C606.267 273.639 588.118 273.639 576.47 277.958L29.1301 480.905C22.7591 483.267 17.9431 486.202 14.9251 489.291V489.289C14.9201 489.294 14.9161 489.3 14.9101 489.305C14.7931 489.425 14.6871 489.546 14.5751 489.665C14.3171 489.941 14.0661 490.229 13.8241 490.53C13.6611 490.733 13.5011 490.934 13.3541 491.137C13.3311 491.168 13.3091 491.199 13.2881 491.23C12.8311 491.874 12.4481 492.519 12.1331 493.157C9.76106 497.959 9.30707 504.231 12.4881 508.979C13.0591 509.831 13.8031 510.66 14.7521 511.448C14.8111 511.497 14.8641 511.549 14.9241 511.597V511.586C15.3141 511.895 15.7231 512.199 16.1771 512.493L360.818 735.632C375.081 744.867 401.751 744.872 419.892 735.632L980.381 450.143C980.941 449.858 981.457 449.562 981.952 449.261V449.266C989.18 445.196 990.558 436.429 986.84 429.727Z" fill="black"/>
<path opacity="0.1639" d="M985.265 430.18C984.873 429.381 984.334 428.589 983.659 427.812C982.056 425.848 979.935 424.184 977.312 423.054C976.174 422.454 974.929 421.882 973.578 421.342L616.498 278.815C605.706 274.507 587.605 274.507 575.988 278.815L30.1049 481.222C23.7509 483.578 18.9479 486.505 15.9379 489.585V489.584C15.9329 489.589 15.9289 489.595 15.9239 489.6C15.8079 489.719 15.7019 489.84 15.5899 489.959C15.3319 490.234 15.0829 490.521 14.8409 490.822C14.6779 491.024 14.5189 491.224 14.3719 491.427C14.3499 491.458 14.3279 491.489 14.3059 491.52C13.8499 492.162 13.4679 492.806 13.1539 493.442C10.7889 498.232 10.3359 504.486 13.5079 509.222C14.0769 510.072 14.8199 510.899 15.7669 511.684C15.8259 511.733 15.8789 511.785 15.9389 511.833V511.822C16.3279 512.13 16.7359 512.434 17.1889 512.727L360.912 735.272C375.137 744.482 401.736 744.487 419.828 735.272L978.824 450.544C979.382 450.26 979.897 449.965 980.391 449.664V449.669C987.599 445.607 988.973 436.864 985.265 430.18Z" fill="black"/>
<path opacity="0.1803" d="M983.689 430.633C983.298 429.836 982.761 429.046 982.087 428.271C980.489 426.312 978.373 424.653 975.757 423.526C974.622 422.928 973.381 422.357 972.032 421.819L615.907 279.672C605.144 275.376 587.092 275.376 575.505 279.672L31.081 481.538C24.744 483.888 19.954 486.806 16.952 489.879V489.878C16.947 489.883 16.943 489.889 16.938 489.894C16.822 490.013 16.717 490.133 16.605 490.252C16.348 490.526 16.099 490.813 15.858 491.113C15.696 491.314 15.537 491.514 15.39 491.717C15.368 491.748 15.346 491.779 15.324 491.81C14.869 492.451 14.489 493.092 14.175 493.727C11.816 498.504 11.365 504.742 14.529 509.464C15.097 510.311 15.837 511.136 16.782 511.92C16.841 511.969 16.894 512.02 16.953 512.068V512.057C17.341 512.364 17.748 512.667 18.199 512.959L361.004 734.91C375.191 744.096 401.719 744.101 419.763 734.91L977.266 450.942C977.823 450.659 978.337 450.364 978.828 450.065V450.069C986.017 446.019 987.388 437.299 983.689 430.633Z" fill="black"/>
<path opacity="0.1967" d="M982.114 431.086C981.724 430.291 981.188 429.503 980.516 428.73C978.922 426.776 976.812 425.121 974.203 423.998V423.999C973.071 423.402 971.833 422.832 970.488 422.296L615.317 280.529C604.582 276.244 586.579 276.244 575.023 280.529L32.0559 481.855C25.7359 484.198 20.9589 487.109 17.9649 490.174V490.172C17.9599 490.177 17.956 490.183 17.951 490.188C17.835 490.307 17.73 490.427 17.619 490.545C17.362 490.819 17.1139 491.104 16.8739 491.403C16.7119 491.604 16.5539 491.803 16.4069 492.005C16.3849 492.036 16.363 492.067 16.341 492.097C15.887 492.736 15.508 493.376 15.195 494.009C12.842 498.773 12.392 504.994 15.548 509.704C16.114 510.549 16.853 511.372 17.794 512.153C17.852 512.202 17.9059 512.253 17.9649 512.301V512.29C18.3519 512.597 18.7579 512.898 19.2079 513.19L361.095 734.546C375.244 743.707 401.701 743.712 419.697 734.546L975.707 451.339C976.262 451.056 976.775 450.763 977.265 450.464V450.468C984.436 446.43 985.802 437.734 982.114 431.086Z" fill="black"/>
<path opacity="0.2131" d="M980.539 431.539C980.15 430.746 979.616 429.961 978.946 429.189C977.356 427.241 975.252 425.59 972.65 424.47V424.471C971.521 423.876 970.286 423.307 968.945 422.772L614.727 281.386C604.021 277.113 586.066 277.113 574.542 281.386L33.0319 482.171C26.729 484.508 21.9639 487.411 18.9779 490.467V490.465C18.9729 490.47 18.969 490.476 18.964 490.481C18.849 490.599 18.7439 490.719 18.6329 490.837C18.3769 491.11 18.13 491.395 17.89 491.693C17.729 491.893 17.571 492.092 17.425 492.294C17.403 492.325 17.3809 492.355 17.3589 492.386C16.9069 493.023 16.528 493.661 16.216 494.292C13.869 499.043 13.4209 505.248 16.5679 509.945C17.1329 510.788 17.869 511.608 18.808 512.388C18.866 512.436 18.9189 512.488 18.9779 512.536V512.525C19.3639 512.831 19.768 513.132 20.218 513.422L361.187 734.184C375.298 743.32 401.684 743.326 419.631 734.184L974.149 451.737C974.703 451.455 975.214 451.162 975.703 450.864V450.869C982.854 446.842 984.217 438.169 980.539 431.539Z" fill="black"/>
<path opacity="0.2295" d="M978.964 431.992C978.576 431.202 978.043 430.418 977.375 429.649C975.789 427.706 973.691 426.06 971.096 424.942C969.97 424.348 968.739 423.782 967.401 423.249L614.136 282.243C603.459 277.981 585.552 277.981 574.059 282.243L34.0079 482.488C27.722 484.819 22.97 487.714 19.992 490.762V490.761C19.987 490.766 19.983 490.772 19.978 490.777C19.863 490.895 19.7579 491.014 19.6479 491.132C19.3929 491.404 19.146 491.688 18.907 491.986C18.746 492.186 18.5889 492.384 18.4429 492.585C18.4209 492.616 18.399 492.646 18.377 492.677C17.926 493.313 17.548 493.949 17.237 494.578C14.897 499.317 14.449 505.504 17.588 510.189C18.151 511.03 18.886 511.848 19.822 512.625C19.88 512.673 19.933 512.725 19.992 512.772V512.761C20.377 513.066 20.78 513.366 21.228 513.656L361.279 733.824C375.352 742.936 401.667 742.941 419.566 733.824L972.591 452.137C973.143 451.856 973.653 451.564 974.141 451.267V451.272C981.273 447.254 982.632 438.604 978.964 431.992Z" fill="black"/>
<path opacity="0.2459" d="M977.389 432.444C977.002 431.656 976.471 430.874 975.804 430.107C974.223 428.169 972.13 426.528 969.542 425.413C968.419 424.821 967.191 424.256 965.857 423.724L613.546 283.1C602.898 278.85 585.039 278.85 573.577 283.1L34.9829 482.805C28.7139 485.129 23.9749 488.017 21.0049 491.057V491.055C20.9999 491.06 20.9959 491.066 20.9909 491.071C20.8759 491.189 20.7719 491.308 20.6619 491.425C20.4079 491.697 20.1609 491.98 19.9229 492.276C19.7629 492.475 19.6059 492.673 19.4599 492.873C19.4379 492.904 19.4159 492.934 19.3949 492.965C18.9449 493.599 18.5689 494.233 18.2589 494.861C15.9249 499.587 15.4789 505.758 18.6089 510.43C19.1709 511.268 19.9029 512.084 20.8369 512.859C20.8949 512.907 20.9479 512.958 21.0059 513.006V512.995C21.3889 513.299 21.7919 513.599 22.2389 513.888L361.372 733.461C375.407 742.548 401.651 742.553 419.502 733.461L971.034 452.535C971.585 452.255 972.093 451.964 972.58 451.667V451.671C979.691 447.665 981.047 439.039 977.389 432.444Z" fill="black"/>
<path opacity="0.2623" d="M975.813 432.897C975.427 432.111 974.897 431.332 974.232 430.566C972.655 428.633 970.568 426.996 967.987 425.885C966.867 425.295 965.643 424.732 964.312 424.201L612.955 283.957C602.336 279.718 584.525 279.718 573.094 283.957L35.9591 483.121C29.7071 485.439 24.9811 488.319 22.0191 491.35V491.348C22.0141 491.353 22.0101 491.359 22.0051 491.363C21.8901 491.481 21.787 491.599 21.676 491.717C21.422 491.988 21.177 492.27 20.939 492.566C20.779 492.765 20.6231 492.962 20.4781 493.162C20.4561 493.192 20.434 493.223 20.413 493.253C19.964 493.885 19.5891 494.518 19.2801 495.144C16.9521 499.857 16.5071 506.011 19.6291 510.671C20.1891 511.507 20.9201 512.321 21.8511 513.094C21.9091 513.142 21.9611 513.193 22.0201 513.24V513.229C22.4031 513.532 22.804 513.831 23.249 514.119L361.464 733.098C375.461 742.161 401.634 742.166 419.436 733.098L969.475 452.932C970.024 452.652 970.531 452.362 971.017 452.066V452.07C978.11 448.077 979.462 439.474 975.813 432.897Z" fill="black"/>
<path opacity="0.2787" d="M974.238 433.35C973.853 432.566 973.325 431.789 972.662 431.026C971.089 429.099 969.008 427.466 966.434 426.357C965.317 425.768 964.096 425.207 962.769 424.677L612.365 284.815C601.774 280.588 584.013 280.588 572.612 284.815L36.934 483.438C30.699 485.75 25.9859 488.622 23.0319 491.645V491.643C23.0269 491.648 23.023 491.654 23.018 491.658C22.904 491.775 22.7999 491.893 22.6899 492.01C22.4369 492.28 22.1919 492.562 21.9549 492.857C21.7959 493.055 21.6389 493.252 21.4949 493.451C21.4729 493.481 21.4509 493.512 21.4299 493.542C20.9829 494.172 20.6079 494.804 20.2999 495.428C17.9789 500.128 17.5349 506.266 20.6479 510.912C21.2069 511.746 21.9349 512.557 22.8639 513.328C22.9219 513.376 22.9739 513.427 23.0329 513.474V513.463C23.4149 513.766 23.8149 514.063 24.2589 514.351L361.556 732.736C375.515 741.774 401.617 741.779 419.371 732.736L967.918 453.33C968.466 453.051 968.971 452.762 969.455 452.467V452.471C976.528 448.489 977.877 439.909 974.238 433.35Z" fill="black"/>
<path opacity="0.2951" d="M972.663 433.803C972.279 433.021 971.752 432.246 971.091 431.485C969.523 429.563 967.447 427.935 964.88 426.829V426.83C963.766 426.243 962.548 425.682 961.225 425.154L611.775 285.672C601.213 281.456 583.5 281.456 572.131 285.672L37.9101 483.754C31.6921 486.059 26.9911 488.924 24.0451 491.938C24.0401 491.943 24.0361 491.948 24.0311 491.952C23.9171 492.069 23.8141 492.187 23.7041 492.304C23.4521 492.573 23.2071 492.854 22.9711 493.148C22.8121 493.346 22.6561 493.542 22.5121 493.741C22.4901 493.771 22.4691 493.802 22.4471 493.832C22.0011 494.461 21.6271 495.09 21.3201 495.713C19.0051 500.4 18.5621 506.521 21.6671 511.155C22.2241 511.986 22.9511 512.796 23.8771 513.565C23.9341 513.613 23.9871 513.664 24.0451 513.711V513.7C24.4261 514.002 24.8251 514.299 25.2681 514.585L361.648 732.376C375.569 741.389 401.6 741.395 419.306 732.376L966.36 453.731C966.906 453.453 967.411 453.164 967.893 452.87V452.874C974.947 448.9 976.292 440.344 972.663 433.803Z" fill="black"/>
<path opacity="0.3115" d="M971.088 434.256C970.705 433.476 970.18 432.703 969.52 431.944C967.956 430.027 965.886 428.403 963.326 427.301C962.215 426.715 961.001 426.157 959.681 425.63L611.184 286.529C600.651 282.325 582.986 282.325 571.648 286.529L38.8851 484.07C32.6841 486.369 27.9961 489.226 25.0581 492.232V492.23C25.0531 492.235 25.0491 492.241 25.0441 492.245C24.9301 492.361 24.8271 492.479 24.7181 492.596C24.4661 492.865 24.2231 493.145 23.9871 493.438C23.8281 493.635 23.6731 493.831 23.5291 494.029C23.5071 494.059 23.4861 494.089 23.4641 494.12C23.0191 494.747 22.6471 495.375 22.3401 495.996C20.0311 500.67 19.5901 506.775 22.6861 511.396C23.2421 512.225 23.9661 513.032 24.8901 513.799C24.9471 513.847 24.9991 513.897 25.0581 513.944V513.933C25.4371 514.234 25.8361 514.53 26.2781 514.816L361.74 732.014C375.623 741.003 401.583 741.008 419.24 732.014L964.801 454.129C965.346 453.852 965.849 453.564 966.33 453.271V453.275C973.365 449.312 974.707 440.779 971.088 434.256Z" fill="black"/>
<path opacity="0.3279" d="M969.512 434.708C969.13 433.93 968.606 433.159 967.949 432.403C966.389 430.491 964.325 428.872 961.772 427.773C960.664 427.189 959.453 426.632 958.137 426.107L610.594 287.386C600.09 283.193 582.473 283.193 571.166 287.386L39.8611 484.387C33.6771 486.68 29.0021 489.528 26.0721 492.527V492.525C26.0671 492.53 26.0631 492.536 26.0581 492.54C25.9451 492.656 25.8421 492.773 25.7331 492.89C25.4821 493.158 25.2391 493.437 25.0041 493.73C24.8461 493.927 24.6911 494.122 24.5481 494.319C24.5261 494.349 24.5051 494.379 24.4841 494.409C24.0401 495.034 23.6691 495.66 23.3631 496.279C21.0611 500.941 20.6201 507.028 23.7081 511.637C24.2621 512.464 24.9851 513.269 25.9061 514.033C25.9631 514.08 26.0151 514.131 26.0731 514.178V514.167C26.4511 514.467 26.8481 514.762 27.2891 515.048L361.833 731.65C375.678 740.614 401.567 740.619 419.176 731.65L963.244 454.525C963.787 454.248 964.289 453.961 964.769 453.669V453.673C971.784 449.723 973.122 441.214 969.512 434.708Z" fill="black"/>
<path opacity="0.3443" d="M967.937 435.161C967.556 434.385 967.034 433.617 966.378 432.862C964.822 430.956 962.764 429.341 960.217 428.244C959.113 427.662 957.904 427.105 956.592 426.582L610.003 288.242C599.528 284.061 581.959 284.061 570.683 288.242L40.8361 484.703C34.6691 486.99 30.0071 489.83 27.0851 492.821V492.819C27.0801 492.824 27.0761 492.829 27.0711 492.834C26.9581 492.95 26.8551 493.067 26.7471 493.183C26.4971 493.45 26.2551 493.729 26.0201 494.021C25.8621 494.217 25.7081 494.412 25.5651 494.609C25.5431 494.639 25.5221 494.669 25.5011 494.699C25.0581 495.323 24.6881 495.947 24.3831 496.564C22.0871 501.213 21.6481 507.284 24.7271 511.88C25.2801 512.705 26.0001 513.507 26.9191 514.27C26.9761 514.317 27.0281 514.368 27.0861 514.415V514.405C27.4631 514.704 27.8591 514.999 28.2991 515.283L361.924 731.29C375.731 740.23 401.549 740.235 419.11 731.29L961.685 454.926C962.227 454.65 962.727 454.364 963.206 454.072V454.076C970.203 450.135 971.536 441.649 967.937 435.161Z" fill="black"/>
<path opacity="0.3607" d="M966.362 435.614C965.982 434.841 965.461 434.074 964.807 433.321C963.256 431.42 961.203 429.809 958.663 428.716C957.561 428.135 956.357 427.581 955.048 427.059L609.413 289.1C598.966 284.931 581.446 284.931 570.201 289.1L41.812 485.02C35.662 487.3 31.013 490.133 28.099 493.115C28.094 493.12 28.09 493.125 28.085 493.129C27.972 493.244 27.87 493.361 27.762 493.477C27.512 493.743 27.271 494.021 27.037 494.312C26.88 494.507 26.726 494.702 26.583 494.898C26.561 494.928 26.54 494.958 26.519 494.988C26.078 495.61 25.708 496.232 25.404 496.848C23.114 501.484 22.676 507.538 25.747 512.122C26.298 512.945 27.017 513.745 27.933 514.505C27.99 514.552 28.042 514.602 28.099 514.649V514.639C28.475 514.937 28.87 515.231 29.309 515.515L362.017 730.928C375.786 739.843 401.533 739.848 419.045 730.928L960.128 455.324C960.668 455.049 961.167 454.763 961.644 454.472V454.476C968.621 450.547 969.951 442.084 966.362 435.614Z" fill="black"/>
<path opacity="0.377" d="M964.787 436.067C964.408 435.296 963.889 434.531 963.237 433.781C961.69 431.885 959.642 430.279 957.11 429.189C956.011 428.61 954.81 428.056 953.505 427.536L608.823 289.957C598.405 285.799 580.934 285.799 569.719 289.957L42.7881 485.337C36.6551 487.611 32.0181 490.436 29.1131 493.41C29.1081 493.415 29.1041 493.419 29.0991 493.424C28.9871 493.539 28.8851 493.656 28.7771 493.771C28.5281 494.037 28.2871 494.314 28.0541 494.604C27.8971 494.799 27.7431 494.993 27.6011 495.188C27.5791 495.218 27.5581 495.248 27.5371 495.278C27.0971 495.898 26.7281 496.519 26.4251 497.133C24.1421 501.756 23.7051 507.794 26.7671 512.365C27.3161 513.185 28.0331 513.983 28.9471 514.742C29.0041 514.789 29.0551 514.839 29.1131 514.886V514.876C29.4881 515.174 29.8821 515.466 30.3191 515.749L362.109 730.568C375.84 739.458 401.516 739.464 418.98 730.568L958.57 455.725C959.109 455.451 959.606 455.166 960.082 454.876V454.88C967.04 450.958 968.366 442.518 964.787 436.067Z" fill="black"/>
<path opacity="0.3934" d="M963.212 436.52C962.834 435.751 962.316 434.989 961.666 434.24C960.123 432.349 958.081 430.748 955.556 429.66V429.661C954.461 429.083 953.262 428.532 951.961 428.012L608.232 290.814C597.843 286.667 580.42 286.667 569.237 290.814L43.763 485.653C37.647 487.921 33.023 490.738 30.126 493.704V493.702C30.121 493.707 30.117 493.712 30.112 493.717C30 493.832 29.898 493.948 29.79 494.063C29.542 494.328 29.302 494.604 29.069 494.894C28.913 495.088 28.759 495.282 28.618 495.477C28.596 495.507 28.575 495.537 28.554 495.566C28.115 496.185 27.748 496.804 27.445 497.416C25.168 502.027 24.732 508.048 27.786 512.606C28.334 513.424 29.049 514.22 29.96 514.976C30.017 515.023 30.068 515.073 30.125 515.119V515.109C30.499 515.406 30.892 515.698 31.328 515.98L362.2 730.204C375.893 739.07 401.498 739.075 418.914 730.204L957.011 456.121C957.548 455.847 958.044 455.563 958.519 455.274V455.278C965.458 451.37 966.781 442.953 963.212 436.52Z" fill="black"/>
<path opacity="0.4098" d="M961.636 436.973C961.259 436.206 960.743 435.446 960.094 434.699C958.556 432.814 956.519 431.216 954.001 430.132C952.909 429.556 951.714 429.007 950.416 428.489L607.642 291.671C597.282 287.536 579.907 287.536 568.755 291.671L44.738 485.97C38.639 488.231 34.028 491.041 31.138 493.998V493.996C31.133 494.001 31.129 494.006 31.124 494.011C31.012 494.126 30.911 494.241 30.803 494.356C30.556 494.62 30.316 494.896 30.084 495.184C29.928 495.378 29.775 495.57 29.634 495.765C29.612 495.795 29.591 495.825 29.57 495.854C29.132 496.471 28.766 497.088 28.464 497.699C26.193 502.297 25.759 508.301 28.804 512.846C29.351 513.662 30.063 514.456 30.972 515.21C31.028 515.257 31.08 515.307 31.137 515.353V515.343C31.51 515.639 31.902 515.93 32.336 516.211L362.29 729.841C375.945 738.682 401.479 738.687 418.846 729.841L955.45 456.518C955.986 456.245 956.481 455.962 956.954 455.674V455.678C963.877 451.781 965.196 443.388 961.636 436.973Z" fill="black"/>
<path opacity="0.4262" d="M960.061 437.425C959.685 436.66 959.17 435.902 958.523 435.158C956.989 433.278 954.958 431.685 952.447 430.604C951.358 430.03 950.166 429.482 948.872 428.965L607.051 292.528C596.72 288.404 579.393 288.404 568.272 292.528L45.714 486.286C39.632 488.541 35.034 491.343 32.152 494.292C32.147 494.297 32.143 494.301 32.138 494.306C32.027 494.42 31.925 494.536 31.818 494.65C31.571 494.913 31.332 495.188 31.101 495.476C30.945 495.669 30.793 495.861 30.652 496.056C30.631 496.086 30.61 496.115 30.589 496.145C30.152 496.76 29.787 497.376 29.486 497.985C27.222 502.57 26.788 508.557 29.825 513.09C30.37 513.903 31.081 514.695 31.987 515.447C32.043 515.494 32.094 515.543 32.152 515.589V515.579C32.524 515.874 32.915 516.165 33.348 516.445L362.385 729.48C376.002 738.296 401.465 738.302 418.784 729.48L953.895 456.918C954.429 456.646 954.923 456.363 955.395 456.076V456.08C962.295 452.193 963.611 443.823 960.061 437.425Z" fill="black"/>
<path opacity="0.4426" d="M958.486 437.878C958.111 437.115 957.598 436.359 956.953 435.617C955.423 433.742 953.398 432.154 950.894 431.075C949.808 430.502 948.619 429.956 947.329 429.441L606.461 293.385C596.159 289.273 578.88 289.273 567.79 293.385L46.69 486.603C40.625 488.852 36.039 491.646 33.166 494.587C33.161 494.592 33.157 494.596 33.152 494.601C33.041 494.715 32.94 494.83 32.833 494.944C32.587 495.207 32.349 495.481 32.118 495.768C31.963 495.961 31.811 496.152 31.67 496.346C31.649 496.376 31.628 496.405 31.607 496.435C31.172 497.048 30.807 497.662 30.507 498.27C28.249 502.842 27.817 508.813 30.845 513.333C31.388 514.144 32.097 514.934 33.001 515.683C33.057 515.73 33.108 515.779 33.165 515.825V515.815C33.536 516.109 33.926 516.399 34.358 516.679L362.476 729.121C376.055 737.913 401.447 737.918 418.718 729.121L952.336 457.319C952.869 457.048 953.361 456.766 953.831 456.479V456.483C960.714 452.605 962.026 444.258 958.486 437.878Z" fill="black"/>
<path opacity="0.459" d="M956.911 438.331C956.537 437.571 956.025 436.817 955.382 436.076C953.856 434.206 951.837 432.623 949.34 431.547C948.257 430.976 947.072 430.431 945.785 429.918L605.87 294.242C595.596 290.141 578.366 290.141 567.307 294.242L47.6651 486.919C41.6171 489.162 37.0441 491.948 34.1791 494.88C34.1741 494.885 34.1701 494.889 34.1651 494.894C34.0541 495.008 33.9531 495.122 33.8471 495.236C33.6021 495.498 33.3641 495.771 33.1341 496.057C32.9791 496.249 32.8281 496.44 32.6881 496.633C32.6671 496.662 32.6461 496.692 32.6251 496.721C32.1911 497.333 31.8281 497.945 31.5291 498.55C29.2771 503.11 28.8461 509.064 31.8661 513.571C32.4081 514.38 33.1151 515.167 34.0161 515.915C34.0721 515.961 34.1231 516.011 34.1791 516.057V516.047C34.5491 516.341 34.9381 516.629 35.3681 516.908L362.568 728.755C376.109 737.522 401.43 737.528 418.652 728.755L950.778 457.713C951.309 457.442 951.8 457.162 952.269 456.876V456.88C959.132 453.016 960.441 444.693 956.911 438.331Z" fill="black"/>
<path opacity="0.4754" d="M955.336 438.784C954.964 438.026 954.453 437.274 953.811 436.536C952.29 434.672 950.276 433.092 947.786 432.02C946.706 431.45 945.524 430.907 944.241 430.395L605.28 295.099C595.035 291.01 577.853 291.01 566.825 295.099L48.641 487.236C42.61 489.472 38.05 492.251 35.193 495.175V495.173C35.188 495.178 35.184 495.183 35.179 495.188C35.069 495.301 34.968 495.416 34.862 495.529C34.617 495.79 34.38 496.063 34.151 496.348C33.997 496.54 33.846 496.73 33.706 496.923C33.685 496.952 33.664 496.982 33.643 497.011C33.21 497.621 32.848 498.231 32.55 498.835C30.305 503.382 29.875 509.319 32.886 513.814C33.426 514.621 34.131 515.406 35.03 516.151C35.086 516.197 35.137 516.247 35.193 516.292V516.282C35.562 516.575 35.949 516.863 36.379 517.141L362.662 728.394C376.165 737.137 401.415 737.142 418.589 728.394L949.222 458.113C949.752 457.843 950.241 457.563 950.709 457.278V457.282C957.551 453.428 958.856 445.128 955.336 438.784Z" fill="black"/>
<path opacity="0.4918" d="M953.76 439.237C953.389 438.481 952.879 437.731 952.239 436.995C950.722 435.136 948.714 433.561 946.231 432.492C945.154 431.924 943.976 431.382 942.696 430.871L604.69 295.956C594.474 291.879 577.341 291.879 566.344 295.956L49.6161 487.552C43.6021 489.782 39.0551 492.552 36.2051 495.469C36.2001 495.474 36.1961 495.478 36.1911 495.483C36.0811 495.596 35.9811 495.71 35.8751 495.823C35.6311 496.083 35.3951 496.355 35.1661 496.64C35.0121 496.831 34.8621 497.021 34.7221 497.213C34.7011 497.242 34.6801 497.272 34.6591 497.301C34.2271 497.909 33.8661 498.518 33.5691 499.12C31.3301 503.654 30.9021 509.575 33.9051 514.057C34.4441 514.861 35.1471 515.644 36.0431 516.388C36.0991 516.434 36.1491 516.483 36.2061 516.529V516.519C36.5741 516.811 36.9601 517.098 37.3891 517.375L362.754 728.034C376.219 736.752 401.398 736.757 418.524 728.034L947.664 458.513C948.192 458.244 948.68 457.965 949.147 457.68V457.684C955.97 453.84 957.27 445.563 953.76 439.237Z" fill="black"/>
<path opacity="0.5082" d="M952.185 439.69C951.815 438.936 951.307 438.188 950.669 437.454C949.156 435.6 947.154 434.029 944.678 432.963C943.604 432.397 942.429 431.856 941.153 431.347L604.099 296.813C593.912 292.747 576.827 292.747 565.861 296.813L50.592 487.869C44.595 490.093 40.061 492.855 37.219 495.763C37.214 495.768 37.21 495.772 37.205 495.777C37.095 495.89 36.995 496.003 36.89 496.116C36.647 496.376 36.411 496.647 36.183 496.93C36.03 497.121 35.879 497.31 35.74 497.502C35.719 497.531 35.698 497.56 35.677 497.59C35.247 498.196 34.886 498.804 34.59 499.404C32.357 503.925 31.93 509.829 34.925 514.299C35.462 515.101 36.163 515.882 37.057 516.623C37.112 516.669 37.163 516.718 37.219 516.764V516.754C37.586 517.045 37.971 517.332 38.398 517.608L362.845 727.67C376.272 736.364 401.38 736.369 418.457 727.67L946.104 458.91C946.631 458.642 947.117 458.363 947.583 458.08V458.084C954.388 454.251 955.685 445.998 952.185 439.69Z" fill="black"/>
<path opacity="0.5246" d="M950.61 440.142C950.241 439.39 949.734 438.645 949.098 437.913C947.589 436.064 945.593 434.498 943.124 433.435C942.053 432.87 940.881 432.332 939.609 431.824L603.509 297.671C593.351 293.616 576.314 293.616 565.379 297.671L51.567 488.185C45.587 490.402 41.066 493.157 38.232 496.057C38.227 496.062 38.223 496.066 38.218 496.071C38.109 496.183 38.009 496.297 37.904 496.409C37.661 496.668 37.426 496.938 37.199 497.221C37.046 497.411 36.896 497.6 36.758 497.791C36.737 497.82 36.716 497.849 36.696 497.878C36.267 498.483 35.908 499.088 35.612 499.687C33.385 504.195 32.96 510.082 35.946 514.539C36.482 515.339 37.181 516.117 38.072 516.857C38.127 516.903 38.177 516.952 38.234 516.997V516.987C38.6 517.277 38.984 517.563 39.41 517.839L362.939 727.309C376.328 735.978 401.365 735.983 418.394 727.309L944.549 459.309C945.074 459.042 945.559 458.764 946.023 458.481V458.485C952.807 454.663 954.1 446.433 950.61 440.142Z" fill="black"/>
<path opacity="0.541" d="M949.035 440.595C948.667 439.845 948.162 439.102 947.527 438.372C946.023 436.529 944.032 434.967 941.57 433.907V433.908C940.502 433.345 939.334 432.807 938.065 432.301L602.918 298.527C592.789 294.484 575.8 294.484 564.896 298.527L52.543 488.502C46.58 490.713 42.071 493.46 39.246 496.352C39.241 496.357 39.238 496.361 39.233 496.366C39.124 496.478 39.024 496.591 38.919 496.703C38.677 496.961 38.443 497.231 38.216 497.513C38.064 497.703 37.914 497.891 37.776 498.081C37.755 498.11 37.734 498.139 37.714 498.168C37.286 498.771 36.928 499.375 36.633 499.972C34.413 504.467 33.988 510.338 36.966 514.782C37.5 515.58 38.197 516.356 39.086 517.093C39.141 517.139 39.191 517.187 39.247 517.233V517.223C39.612 517.512 39.995 517.797 40.42 518.072L363.031 726.948C376.382 735.592 401.348 735.597 418.329 726.948L942.991 459.708C943.515 459.441 943.999 459.164 944.461 458.882V458.886C951.225 455.075 952.515 446.868 949.035 440.595Z" fill="black"/>
<path opacity="0.5574" d="M947.459 441.048C947.092 440.3 946.588 439.559 945.956 438.831C944.456 436.993 942.471 435.436 940.016 434.378C938.951 433.816 937.786 433.28 936.521 432.775L602.328 299.384C592.227 295.353 575.287 295.353 564.414 299.384L53.518 488.818C47.572 491.023 43.076 493.762 40.259 496.645V496.644C40.255 496.649 40.251 496.654 40.246 496.659C40.137 496.771 40.038 496.883 39.933 496.995C39.692 497.253 39.458 497.521 39.232 497.803C39.08 497.992 38.931 498.18 38.793 498.37C38.772 498.399 38.751 498.428 38.731 498.457C38.304 499.058 37.947 499.66 37.653 500.256C35.439 504.739 35.016 510.593 37.985 515.024C38.518 515.819 39.213 516.593 40.099 517.328C40.154 517.374 40.204 517.422 40.26 517.467V517.457C40.624 517.746 41.006 518.03 41.429 518.304L363.122 726.585C376.435 735.205 401.33 735.21 418.262 726.585L941.431 460.106C941.953 459.84 942.436 459.564 942.897 459.283V459.287C949.644 455.486 950.93 447.303 947.459 441.048Z" fill="black"/>
<path opacity="0.5738" d="M945.884 441.501C945.518 440.755 945.015 440.016 944.385 439.291C942.889 437.458 940.91 435.905 938.462 434.851C937.4 434.291 936.238 433.757 934.977 433.254L601.737 300.241C591.665 296.221 574.773 296.221 563.932 300.241L54.4939 489.135C48.5649 491.334 44.0819 494.065 41.2729 496.94C41.2679 496.945 41.2649 496.949 41.2589 496.954C41.1499 497.065 41.0519 497.178 40.9469 497.289C40.7059 497.546 40.4729 497.814 40.2479 498.094C40.0959 498.283 39.9479 498.47 39.8099 498.659C39.7889 498.688 39.7689 498.717 39.7479 498.746C39.3219 499.346 38.9659 499.946 38.6729 500.54C36.4649 505.01 36.0429 510.847 39.0039 515.266C39.5349 516.059 40.2279 516.831 41.1119 517.564C41.1669 517.61 41.2169 517.658 41.2719 517.703V517.693C41.6349 517.981 42.0159 518.264 42.4379 518.537L363.213 726.224C376.488 734.819 401.311 734.824 418.196 726.224L939.872 460.505C940.393 460.24 940.874 459.965 941.334 459.684V459.688C948.062 455.898 949.345 447.738 945.884 441.501Z" fill="black"/>
<path opacity="0.5902" d="M944.309 441.953C943.944 441.21 943.443 440.473 942.814 439.749C941.322 437.921 939.349 436.373 936.908 435.322C935.849 434.764 934.691 434.23 933.433 433.728L601.147 301.098C591.104 297.09 574.261 297.09 563.45 301.098L55.47 489.451C49.557 491.643 45.088 494.367 42.286 497.234V497.233C42.281 497.238 42.278 497.243 42.272 497.248C42.164 497.359 42.065 497.471 41.961 497.582C41.721 497.838 41.489 498.105 41.264 498.385C41.113 498.573 40.965 498.76 40.828 498.948C40.807 498.977 40.787 499.006 40.766 499.034C40.342 499.632 39.987 500.23 39.694 500.823C37.493 505.28 37.072 511.101 40.024 515.507C40.554 516.298 41.245 517.067 42.126 517.798C42.181 517.843 42.23 517.892 42.286 517.937V517.927C42.648 518.214 43.028 518.496 43.449 518.769L363.306 725.862C376.543 734.433 401.295 734.438 418.132 725.862L938.315 460.903C938.834 460.639 939.314 460.364 939.773 460.084V460.088C946.481 456.309 947.76 448.173 944.309 441.953Z" fill="black"/>
<path opacity="0.6066" d="M942.734 442.406C942.37 441.665 941.87 440.93 941.243 440.208C939.756 438.386 937.788 436.842 935.354 435.794C934.298 435.237 933.143 434.706 931.889 434.206L600.557 301.956C590.543 297.959 573.748 297.959 562.968 301.956L56.445 489.768C50.55 491.954 46.0929 494.67 43.2989 497.528V497.527C43.2939 497.532 43.2909 497.537 43.2849 497.542C43.1769 497.653 43.079 497.765 42.975 497.875C42.736 498.13 42.5039 498.397 42.2799 498.676C42.1289 498.863 41.9809 499.05 41.8449 499.238C41.8239 499.267 41.804 499.295 41.783 499.324C41.36 499.92 41.006 500.517 40.714 501.107C38.519 505.551 38.0989 511.355 41.0429 515.749C41.5709 516.537 42.26 517.305 43.139 518.034C43.193 518.079 43.243 518.127 43.298 518.172V518.162C43.659 518.448 44.0369 518.73 44.4569 519.001L363.396 725.5C376.595 734.046 401.276 734.051 418.064 725.5L936.754 461.302C937.272 461.038 937.75 460.764 938.208 460.486V460.49C944.899 456.721 946.175 448.608 942.734 442.406Z" fill="black"/>
<path opacity="0.623" d="M941.159 442.859C940.796 442.12 940.298 441.387 939.673 440.668C938.19 438.851 936.228 437.311 933.801 436.266C932.748 435.711 931.596 435.181 930.346 434.681L599.968 302.811C589.983 298.826 573.236 298.826 562.487 302.811L57.4211 490.084C51.5421 492.264 47.0981 494.971 44.3131 497.822V497.821C44.3091 497.826 44.3051 497.831 44.3001 497.836C44.1921 497.946 44.0941 498.058 43.9911 498.168C43.7521 498.423 43.5221 498.688 43.2981 498.966C43.1481 499.153 43.0001 499.338 42.8641 499.526C42.8431 499.555 42.8231 499.583 42.8031 499.612C42.3811 500.207 42.0281 500.802 41.7371 501.39C39.5481 505.822 39.1301 511.609 42.0651 515.99C42.5921 516.776 43.2791 517.541 44.1551 518.268C44.2091 518.313 44.2591 518.361 44.3141 518.406V518.396C44.6741 518.681 45.0511 518.962 45.4701 519.233L363.49 725.137C376.651 733.658 401.261 733.663 418.001 725.137L935.199 461.699C935.715 461.436 936.192 461.163 936.648 460.885V460.889C943.318 457.133 944.589 449.043 941.159 442.859Z" fill="black"/>
<path opacity="0.6393" d="M939.583 443.312C939.221 442.575 938.724 441.844 938.101 441.127C936.622 439.315 934.666 437.78 932.246 436.738V436.739C931.196 436.185 930.048 435.657 928.801 435.159L599.376 303.669C589.42 299.695 572.721 299.695 562.003 303.669L58.3959 490.401C52.5339 492.574 48.1029 495.274 45.3259 498.117C45.3219 498.122 45.3179 498.126 45.3129 498.13C45.2059 498.24 45.1079 498.351 45.0049 498.461C44.7669 498.715 44.5369 498.98 44.3139 499.257C44.1639 499.443 44.0169 499.628 43.8809 499.816C43.8599 499.845 43.8399 499.873 43.8199 499.902C43.3989 500.495 43.0469 501.088 42.7569 501.675C40.5749 506.094 40.1569 511.864 43.0839 516.232C43.6089 517.016 44.2939 517.779 45.1679 518.503C45.2219 518.548 45.2709 518.596 45.3259 518.64V518.63C45.6849 518.914 46.0609 519.194 46.4789 519.465L363.582 724.775C376.705 733.272 401.244 733.277 417.936 724.775L933.641 462.098C934.156 461.836 934.631 461.564 935.086 461.286V461.29C941.737 457.544 943.004 449.478 939.583 443.312Z" fill="black"/>
<path opacity="0.6557" d="M938.008 443.765C937.647 443.03 937.152 442.301 936.53 441.586C935.056 439.779 933.104 438.249 930.691 437.21C929.644 436.658 928.499 436.132 927.255 435.635L598.785 304.526C588.857 300.564 572.207 300.564 561.52 304.526L59.3721 490.717C53.5271 492.884 49.1091 495.576 46.3401 498.41C46.3361 498.415 46.3321 498.419 46.3271 498.423C46.2201 498.533 46.1231 498.644 46.0201 498.754C45.7831 499.007 45.5531 499.271 45.3311 499.548C45.1821 499.734 45.0351 499.918 44.9001 500.105C44.8791 500.133 44.8591 500.162 44.8391 500.19C44.4201 500.781 44.0681 501.373 43.7791 501.958C41.6031 506.364 41.1871 512.117 44.1051 516.473C44.6291 517.255 45.3121 518.015 46.1831 518.738C46.2371 518.783 46.2861 518.831 46.3411 518.875V518.865C46.6991 519.149 47.0741 519.428 47.4901 519.697L363.675 724.413C376.76 732.885 401.228 732.89 417.871 724.413L932.083 462.496C932.596 462.235 933.071 461.963 933.524 461.687V461.691C940.155 457.956 941.419 449.913 938.008 443.765Z" fill="black"/>
<path opacity="0.6721" d="M936.433 444.218C936.073 443.485 935.579 442.759 934.96 442.046C933.49 440.244 931.544 438.718 929.138 437.682C928.094 437.132 926.953 436.606 925.713 436.111L598.195 305.384C588.296 301.433 571.695 301.433 561.039 305.384L60.348 491.034C54.52 493.195 50.115 495.879 47.354 498.705V498.704C47.35 498.709 47.346 498.714 47.341 498.718C47.234 498.827 47.137 498.938 47.035 499.048C46.799 499.3 46.57 499.564 46.348 499.839C46.199 500.024 46.053 500.208 45.918 500.394C45.897 500.422 45.877 500.451 45.857 500.479C45.439 501.068 45.089 501.658 44.8 502.242C42.63 506.635 42.215 512.372 45.125 516.715C45.647 517.494 46.328 518.253 47.197 518.973C47.251 519.018 47.3 519.065 47.355 519.11V519.1C47.712 519.383 48.086 519.661 48.501 519.93L363.768 724.051C376.815 732.499 401.212 732.504 417.807 724.051L930.526 462.894C931.038 462.633 931.511 462.363 931.963 462.087V462.091C938.574 458.367 939.834 450.348 936.433 444.218Z" fill="black"/>
<path opacity="0.6885" d="M934.858 444.67C934.499 443.939 934.007 443.215 933.389 442.504C931.923 440.708 929.983 439.186 927.584 438.153C926.543 437.604 925.405 437.081 924.168 436.588L597.604 306.241C587.734 302.301 571.181 302.301 560.556 306.241L61.3232 491.35C55.5122 493.505 51.1192 496.181 48.3662 498.998C48.3622 499.003 48.3582 499.007 48.3532 499.011C48.2472 499.12 48.1502 499.23 48.0482 499.339C47.8122 499.591 47.5842 499.853 47.3632 500.128C47.2142 500.313 47.0692 500.496 46.9342 500.682C46.9132 500.71 46.8932 500.739 46.8732 500.767C46.4562 501.355 46.1072 501.943 45.8202 502.525C43.6572 506.905 43.2432 512.626 46.1442 516.956C46.6652 517.733 47.3442 518.489 48.2102 519.208C48.2642 519.253 48.3122 519.3 48.3672 519.344V519.334C48.7222 519.616 49.0961 519.894 49.5101 520.161L363.86 723.688C376.869 732.111 401.195 732.116 417.741 723.688L928.967 463.292C929.477 463.032 929.949 462.762 930.4 462.487V462.491C936.992 458.779 938.249 450.783 934.858 444.67Z" fill="black"/>
<path opacity="0.7049" d="M933.283 445.123C932.925 444.394 932.434 443.672 931.818 442.963C930.357 441.172 928.422 439.655 926.03 438.625C924.992 438.078 923.857 437.555 922.624 437.063L597.014 307.098C587.173 303.17 570.668 303.17 560.074 307.098L62.2981 491.667C56.5041 493.815 52.1241 496.484 49.3791 499.293V499.292C49.3751 499.297 49.3711 499.302 49.3661 499.306C49.2601 499.415 49.1631 499.525 49.0621 499.634C48.8271 499.885 48.5991 500.147 48.3791 500.421C48.2311 500.605 48.0861 500.788 47.9511 500.973C47.9311 501.001 47.9111 501.03 47.8901 501.058C47.4741 501.644 47.1261 502.23 46.8401 502.811C44.6831 507.179 44.2701 512.882 47.1631 517.2C47.6821 517.975 48.3591 518.729 49.2221 519.445C49.2761 519.489 49.3241 519.537 49.3791 519.581V519.571C49.7331 519.852 50.1061 520.129 50.5181 520.396L363.95 723.329C376.921 731.727 401.176 731.732 417.674 723.329L927.408 463.693C927.917 463.434 928.387 463.165 928.837 462.891V462.895C935.411 459.191 936.664 451.218 933.283 445.123Z" fill="black"/>
<path opacity="0.7213" d="M931.707 445.576C931.35 444.85 930.861 444.129 930.247 443.422C928.79 441.636 926.861 440.123 924.476 439.096C923.441 438.55 922.31 438.03 921.08 437.54L596.424 307.955C586.612 304.038 570.155 304.038 559.592 307.955L63.274 491.983C57.497 494.125 53.13 496.786 50.393 499.587C50.389 499.592 50.385 499.596 50.38 499.6C50.274 499.709 50.178 499.818 50.076 499.927C49.842 500.177 49.615 500.438 49.395 500.712C49.247 500.896 49.103 501.078 48.969 501.262C48.949 501.29 48.929 501.318 48.909 501.346C48.495 501.93 48.148 502.515 47.862 503.093C45.711 507.448 45.3 513.135 48.184 517.44C48.702 518.213 49.377 518.964 50.237 519.679C50.29 519.723 50.339 519.771 50.393 519.814V519.804C50.747 520.084 51.118 520.36 51.529 520.627L364.043 722.966C376.976 731.34 401.16 731.345 417.61 722.966L925.851 464.09C926.359 463.832 926.827 463.563 927.275 463.29V463.294C933.829 459.602 935.079 451.653 931.707 445.576Z" fill="black"/>
<path opacity="0.7377" d="M930.132 446.029C929.776 445.305 929.288 444.587 928.676 443.882C927.223 442.101 925.3 440.593 922.922 439.569C921.89 439.025 920.762 438.505 919.536 438.016L595.833 308.812C586.049 304.907 569.641 304.907 559.109 308.812L64.25 492.3C58.49 494.436 54.136 497.089 51.407 499.882V499.881C51.403 499.886 51.399 499.891 51.394 499.895C51.289 500.003 51.193 500.112 51.091 500.221C50.857 500.471 50.631 500.731 50.412 501.003C50.265 501.186 50.12 501.368 49.987 501.552C49.967 501.58 49.947 501.608 49.927 501.636C49.514 502.218 49.168 502.801 48.883 503.378C46.739 507.72 46.328 513.39 49.204 517.683C49.72 518.453 50.3931 519.203 51.2511 519.915C51.3041 519.959 51.353 520.006 51.407 520.05V520.04C51.76 520.319 52.129 520.595 52.54 520.86L364.136 722.604C377.031 730.953 401.144 730.958 417.546 722.604L924.294 464.489C924.8 464.231 925.267 463.964 925.714 463.691V463.695C932.248 460.014 933.494 452.088 930.132 446.029Z" fill="black"/>
<path opacity="0.7541" d="M928.557 446.482C928.202 445.76 927.716 445.044 927.105 444.341C925.656 442.566 923.739 441.062 921.368 440.041C920.339 439.499 919.214 438.981 917.992 438.494L595.242 309.669C585.487 305.776 569.127 305.776 558.627 309.669L65.2251 492.616C59.4821 494.745 55.1411 497.391 52.4201 500.175C52.4161 500.18 52.4121 500.184 52.4071 500.188C52.3021 500.296 52.2061 500.405 52.1051 500.513C51.8721 500.762 51.646 501.021 51.428 501.293C51.281 501.476 51.1371 501.657 51.0041 501.84C50.9841 501.868 50.9641 501.896 50.9441 501.924C50.5321 502.505 50.1871 503.086 49.9031 503.661C47.7651 507.99 47.3561 513.644 50.2231 517.924C50.7381 518.692 51.4091 519.44 52.2641 520.15C52.3171 520.194 52.3651 520.241 52.4191 520.285V520.275C52.7701 520.554 53.1391 520.828 53.5481 521.093L364.226 722.243C377.083 730.568 401.125 730.573 417.478 722.243L922.733 464.888C923.238 464.631 923.703 464.364 924.149 464.093V464.097C930.666 460.425 931.909 452.523 928.557 446.482Z" fill="black"/>
<path opacity="0.7705" d="M926.982 446.935C926.628 446.215 926.143 445.501 925.534 444.8C924.09 443.03 922.178 441.531 919.814 440.513C918.788 439.972 917.667 439.457 916.448 438.97L594.652 310.526C584.926 306.644 568.614 306.644 558.145 310.526L66.2009 492.933C60.4749 495.056 56.146 497.693 53.434 500.47C53.43 500.475 53.426 500.479 53.421 500.483C53.316 500.59 53.2209 500.699 53.1199 500.807C52.8879 501.055 52.663 501.314 52.445 501.585C52.299 501.767 52.155 501.948 52.022 502.131C52.002 502.159 51.982 502.187 51.962 502.215C51.551 502.794 51.2069 503.374 50.9239 503.947C48.7919 508.263 48.3839 513.9 51.2429 518.167C51.7559 518.933 52.4249 519.678 53.2779 520.386C53.3309 520.43 53.3789 520.477 53.4329 520.52V520.51C53.7829 520.788 54.151 521.061 54.559 521.325L364.319 721.88C377.139 730.18 401.109 730.185 417.414 721.88L921.176 465.286C921.679 465.03 922.143 464.764 922.588 464.493V464.497C929.085 460.837 930.323 452.958 926.982 446.935Z" fill="black"/>
<path opacity="0.7869" d="M925.406 447.387C925.053 446.669 924.57 445.957 923.963 445.259C922.523 443.494 920.617 441.999 918.26 440.984C917.238 440.445 916.119 439.931 914.904 439.446L594.062 311.383C584.365 307.513 568.102 307.513 557.663 311.383L67.1761 493.249C61.4671 495.366 57.1511 497.995 54.4461 500.763C54.4421 500.768 54.4381 500.772 54.4331 500.776C54.3281 500.883 54.2331 500.992 54.1331 501.099C53.9011 501.346 53.6771 501.604 53.4601 501.874C53.3141 502.056 53.1711 502.236 53.0391 502.418C53.0191 502.446 52.9991 502.474 52.9791 502.501C52.5691 503.078 52.2261 503.656 51.9441 504.228C49.8191 508.532 49.4121 514.152 52.2621 518.406C52.7741 519.169 53.4401 519.912 54.2911 520.618C54.3441 520.662 54.3921 520.708 54.4451 520.752V520.742C54.7941 521.019 55.1611 521.292 55.5681 521.555L364.41 721.516C377.191 729.792 401.091 729.796 417.348 721.516L919.618 465.682C920.119 465.427 920.582 465.162 921.026 464.892V464.896C927.504 461.249 928.738 453.393 925.406 447.387Z" fill="black"/>
<path opacity="0.8033" d="M923.831 447.84C923.48 447.124 922.997 446.415 922.392 445.718C920.956 443.958 919.056 442.468 916.706 441.456C915.686 440.919 914.571 440.405 913.36 439.922L593.472 312.24C583.804 308.381 567.589 308.381 557.181 312.24L68.1522 493.566C62.4602 495.676 58.1572 498.298 55.4602 501.058C55.4562 501.063 55.4522 501.067 55.4472 501.071C55.3432 501.178 55.2482 501.286 55.1482 501.393C54.9172 501.64 54.6942 501.897 54.4772 502.166C54.3312 502.347 54.1892 502.527 54.0572 502.708C54.0372 502.736 54.0172 502.764 53.9982 502.791C53.5902 503.367 53.2482 503.943 52.9662 504.513C50.8472 508.804 50.4422 514.407 53.2842 518.649C53.7942 519.41 54.4592 520.151 55.3072 520.855C55.3602 520.899 55.4072 520.945 55.4612 520.988V520.978C55.8092 521.254 56.1752 521.526 56.5802 521.789L364.504 721.156C377.247 729.407 401.076 729.412 417.284 721.156L918.061 466.082C918.561 465.827 919.023 465.563 919.464 465.294V465.298C925.922 461.66 927.153 453.828 923.831 447.84Z" fill="black"/>
<path opacity="0.8197" d="M922.256 448.293C921.906 447.579 921.425 446.872 920.821 446.177C919.389 444.423 917.495 442.937 915.152 441.928C914.136 441.392 913.024 440.88 911.816 440.398L592.881 313.097C583.241 309.25 567.075 309.25 556.698 313.097L69.127 493.882C63.452 495.986 59.162 498.6 56.473 501.352C56.469 501.357 56.465 501.361 56.46 501.365C56.356 501.472 56.262 501.579 56.162 501.686C55.932 501.932 55.709 502.188 55.493 502.457C55.348 502.637 55.206 502.817 55.074 502.998C55.054 503.026 55.034 503.053 55.015 503.081C54.608 503.655 54.267 504.229 53.986 504.798C51.873 509.076 51.469 514.663 54.302 518.892C54.81 519.651 55.474 520.39 56.319 521.091C56.371 521.135 56.419 521.181 56.472 521.224V521.214C56.819 521.489 57.184 521.76 57.588 522.022L364.594 720.795C377.3 729.021 401.057 729.026 417.217 720.795L916.501 466.482C917 466.228 917.46 465.965 917.9 465.696V465.7C924.341 462.072 925.568 454.263 922.256 448.293Z" fill="black"/>
<path opacity="0.8361" d="M920.681 448.746C920.332 448.035 919.852 447.329 919.25 446.637C917.823 444.888 915.934 443.406 913.598 442.4C912.585 441.866 911.476 441.355 910.272 440.875L592.291 313.954C582.68 310.118 566.562 310.118 556.217 313.954L70.1031 494.199C64.4451 496.297 60.1681 498.903 57.4871 501.647C57.4831 501.651 57.4791 501.656 57.4741 501.66C57.3701 501.766 57.2761 501.874 57.1771 501.98C56.9471 502.225 56.7251 502.481 56.5101 502.748C56.3651 502.928 56.2241 503.107 56.0921 503.287C56.0721 503.315 56.0531 503.342 56.0331 503.37C55.6271 503.942 55.2871 504.515 55.0071 505.081C52.9001 509.346 52.4981 514.916 55.3231 519.133C55.8301 519.89 56.4911 520.626 57.3341 521.326C57.3861 521.369 57.4341 521.416 57.4871 521.459V521.449C57.8331 521.724 58.1971 521.994 58.6001 522.255L364.688 720.433C377.355 728.635 401.042 728.64 417.153 720.433L914.944 466.88C915.441 466.627 915.9 466.364 916.339 466.097V466.101C922.759 462.484 923.983 454.698 920.681 448.746Z" fill="black"/>
<path opacity="0.8525" d="M919.106 449.199C918.758 448.49 918.28 447.786 917.68 447.096C916.257 445.352 914.374 443.875 912.045 442.872C911.035 442.339 909.93 441.83 908.729 441.351L591.7 314.811C582.118 310.986 566.048 310.986 555.734 314.811L71.0781 494.515C65.4371 496.607 61.1721 499.205 58.5001 501.94C58.4961 501.945 58.4921 501.949 58.4871 501.953C58.3841 502.059 58.2901 502.166 58.1901 502.272C57.9611 502.516 57.7401 502.771 57.5251 503.038C57.3811 503.217 57.2391 503.395 57.1091 503.576C57.0891 503.603 57.0691 503.631 57.0501 503.658C56.6451 504.228 56.3061 504.799 56.0271 505.364C53.9271 509.616 53.5251 515.17 56.3421 519.374C56.8471 520.128 57.5071 520.863 58.3471 521.56C58.3991 521.603 58.4471 521.649 58.5001 521.692V521.682C58.8451 521.956 59.2071 522.225 59.6091 522.485L364.78 720.07C377.409 728.247 401.025 728.252 417.088 720.07L913.386 467.277C913.882 467.025 914.339 466.763 914.777 466.496V466.5C921.178 462.895 922.398 455.133 919.106 449.199Z" fill="black"/>
<path opacity="0.8689" d="M917.531 449.651C917.184 448.944 916.707 448.243 916.109 447.554C914.69 445.815 912.813 444.343 910.491 443.343C909.484 442.812 908.382 442.304 907.185 441.827L591.11 315.668C581.557 311.855 565.535 311.855 555.252 315.668L72.0541 494.832C66.4301 496.917 62.1781 499.508 59.5141 502.235C59.5101 502.24 59.5061 502.244 59.5011 502.248C59.3981 502.354 59.3041 502.46 59.2051 502.566C58.9771 502.81 58.7561 503.064 58.5421 503.33C58.3981 503.509 58.2571 503.686 58.1271 503.866C58.1071 503.893 58.0881 503.921 58.0681 503.948C57.6641 504.517 57.3271 505.086 57.0481 505.649C54.9541 509.889 54.5541 515.425 57.3621 519.616C57.8661 520.368 58.5231 521.1 59.3611 521.796C59.4131 521.839 59.4601 521.885 59.5131 521.928V521.918C59.8571 522.191 60.2181 522.46 60.6191 522.719L364.871 719.709C377.463 727.861 401.007 727.866 417.022 719.709L911.828 467.677C912.322 467.425 912.778 467.164 913.215 466.898V466.902C919.596 463.307 920.813 455.568 917.531 449.651Z" fill="black"/>
<path opacity="0.8852" d="M915.955 450.104C915.609 449.399 915.134 448.7 914.537 448.014C913.123 446.281 911.251 444.812 908.936 443.816C907.932 443.287 906.833 442.781 905.64 442.305L590.519 316.525C580.995 312.724 565.022 312.724 554.769 316.525L73.029 495.148C67.422 497.227 63.183 499.81 60.527 502.528V502.527C60.523 502.531 60.519 502.537 60.514 502.541C60.411 502.646 60.318 502.753 60.219 502.858C59.991 503.101 59.771 503.354 59.558 503.619C59.415 503.797 59.274 503.974 59.144 504.153C59.124 504.18 59.105 504.208 59.085 504.235C58.683 504.802 58.346 505.37 58.068 505.931C55.98 510.158 55.581 515.678 58.381 519.856C58.883 520.606 59.539 521.336 60.374 522.029C60.426 522.072 60.473 522.118 60.526 522.16V522.15C60.869 522.422 61.229 522.69 61.629 522.948L364.963 719.343C377.517 727.471 400.99 727.476 416.957 719.343L910.27 468.071C910.763 467.82 911.217 467.56 911.652 467.295V467.299C918.015 463.719 919.228 456.003 915.955 450.104Z" fill="black"/>
<path opacity="0.9016" d="M914.38 450.557C914.035 449.854 913.561 449.157 912.967 448.473C911.557 446.745 909.691 445.281 907.383 444.287V444.288C906.382 443.76 905.287 443.256 904.097 442.781L589.929 317.382C580.434 313.592 564.509 313.592 554.287 317.382L74.0051 495.465C68.4151 497.538 64.1891 500.113 61.5401 502.823C61.5361 502.827 61.5321 502.831 61.5271 502.836C61.4251 502.941 61.3321 503.047 61.2331 503.152C61.0061 503.394 60.7871 503.647 60.5741 503.911C60.4311 504.089 60.2911 504.265 60.1611 504.444C60.1411 504.471 60.1221 504.499 60.1031 504.526C59.7021 505.091 59.3661 505.657 59.0901 506.217C57.0091 510.431 56.6111 515.934 59.4021 520.1C59.9031 520.848 60.5561 521.575 61.3891 522.266C61.4411 522.309 61.4881 522.355 61.5401 522.397V522.387C61.8821 522.658 62.2411 522.925 62.6391 523.183L365.056 718.984C377.572 727.087 400.974 727.092 416.892 718.984L908.712 468.472C909.203 468.222 909.656 467.962 910.09 467.698V467.702C916.433 464.13 917.643 456.438 914.38 450.557Z" fill="black"/>
<path opacity="0.918" d="M912.805 451.01C912.461 450.309 911.989 449.614 911.396 448.932C909.99 447.209 908.13 445.75 905.829 444.759C904.831 444.233 903.739 443.73 902.553 443.257L589.339 318.239C579.872 314.461 563.996 314.461 553.805 318.239L74.98 495.781C69.407 497.847 65.194 500.415 62.553 503.117C62.549 503.122 62.545 503.126 62.54 503.13C62.438 503.235 62.345 503.34 62.247 503.445C62.021 503.687 61.802 503.938 61.59 504.202C61.447 504.379 61.308 504.555 61.179 504.733C61.159 504.76 61.14 504.787 61.121 504.814C60.721 505.378 60.386 505.942 60.111 506.5C58.036 510.701 57.639 516.188 60.422 520.341C60.921 521.086 61.573 521.812 62.403 522.501C62.454 522.544 62.501 522.589 62.554 522.632V522.622C62.895 522.892 63.253 523.159 63.65 523.416L365.149 718.623C377.627 726.702 400.958 726.706 416.828 718.623L907.155 468.872C907.645 468.623 908.097 468.364 908.529 468.1V468.104C914.852 464.542 916.057 456.872 912.805 451.01Z" fill="black"/>
<path opacity="0.9344" d="M911.23 451.463C910.887 450.764 910.416 450.072 909.825 449.392C908.423 447.674 906.569 446.219 904.275 445.232C903.28 444.707 902.191 444.207 901.009 443.735L588.749 319.097C579.311 315.33 563.483 315.33 553.324 319.097L75.956 496.098C70.4 498.158 66.199 500.718 63.567 503.411V503.41C63.563 503.414 63.559 503.419 63.554 503.424C63.452 503.528 63.36 503.634 63.262 503.738C63.036 503.979 62.818 504.23 62.607 504.493C62.465 504.67 62.326 504.845 62.197 505.022C62.177 505.049 62.158 505.076 62.139 505.103C61.74 505.665 61.407 506.227 61.132 506.784C59.063 510.972 58.668 516.442 61.442 520.583C61.94 521.326 62.589 522.049 63.417 522.736C63.468 522.779 63.515 522.824 63.567 522.866V522.857C63.907 523.127 64.264 523.392 64.66 523.648L365.241 718.26C377.681 726.314 400.941 726.319 416.762 718.26L905.596 469.269C906.084 469.02 906.535 468.762 906.966 468.5V468.504C913.271 464.953 914.472 457.307 911.23 451.463Z" fill="black"/>
<path opacity="0.9508" d="M909.654 451.916C909.312 451.219 908.843 450.529 908.254 449.851C906.857 448.139 905.007 446.688 902.72 445.703C901.728 445.18 900.643 444.681 899.464 444.211L588.158 319.953C578.749 316.198 562.969 316.198 552.841 319.953L76.932 496.414C71.393 498.468 67.205 501.019 64.581 503.705V503.704C64.577 503.708 64.573 503.713 64.568 503.718C64.467 503.822 64.374 503.927 64.277 504.031C64.052 504.271 63.835 504.521 63.624 504.783C63.482 504.959 63.344 505.134 63.215 505.311C63.195 505.338 63.176 505.365 63.157 505.392C62.76 505.952 62.427 506.513 62.153 507.068C60.091 511.244 59.696 516.697 62.462 520.825C62.958 521.566 63.605 522.287 64.431 522.972C64.482 523.014 64.529 523.06 64.581 523.102V523.092C64.92 523.361 65.276 523.625 65.67 523.881L365.333 717.899C377.735 725.929 400.924 725.933 416.697 717.899L904.039 469.669C904.526 469.421 904.975 469.164 905.405 468.902V468.906C911.689 465.365 912.887 457.742 909.654 451.916Z" fill="black"/>
<path opacity="0.9672" d="M908.079 452.368C907.738 451.674 907.27 450.985 906.683 450.309C905.29 448.602 903.447 447.156 901.167 446.174C900.178 445.652 899.096 445.155 897.921 444.686L587.567 320.81C578.187 317.066 562.455 317.066 552.358 320.81L77.907 496.731C72.385 498.779 68.21 501.322 65.594 504C65.59 504.005 65.586 504.008 65.581 504.013C65.48 504.117 65.388 504.221 65.291 504.325C65.067 504.564 64.85 504.814 64.64 505.075C64.499 505.251 64.36 505.425 64.232 505.601C64.212 505.628 64.193 505.655 64.174 505.682C63.778 506.24 63.446 506.799 63.173 507.352C61.117 511.515 60.724 516.951 63.481 521.067C63.976 521.805 64.621 522.524 65.444 523.207C65.495 523.249 65.541 523.295 65.593 523.336V523.326C65.931 523.594 66.286 523.858 66.679 524.112L365.424 717.536C377.788 725.541 400.906 725.546 416.631 717.536L902.48 470.066C902.965 469.819 903.413 469.563 903.842 469.301V469.305C910.108 465.776 911.302 458.177 908.079 452.368Z" fill="black"/>
<path opacity="0.9836" d="M906.504 452.821C906.164 452.129 905.698 451.443 905.112 450.769C903.723 449.067 901.885 447.625 899.612 446.647C898.626 446.127 897.548 445.63 896.376 445.163L586.976 321.667C577.625 317.935 561.941 317.935 551.875 321.667L78.8811 497.047C73.3761 499.088 69.2141 501.624 66.6061 504.293V504.292C66.6021 504.296 66.5981 504.301 66.5931 504.306C66.4921 504.409 66.4011 504.514 66.3041 504.617C66.0811 504.856 65.8641 505.104 65.6551 505.365C65.5141 505.54 65.3761 505.714 65.2491 505.89C65.2291 505.917 65.2101 505.944 65.1921 505.97C64.7971 506.527 64.4661 507.084 64.1941 507.635C62.1441 511.785 61.7521 517.205 64.5011 521.308C64.9941 522.044 65.6381 522.761 66.4581 523.441C66.5091 523.483 66.5551 523.528 66.6071 523.57V523.561C66.9441 523.828 67.2971 524.091 67.6901 524.345L365.517 717.175C377.843 725.155 400.89 725.16 416.566 717.175L900.922 470.465C901.406 470.219 901.852 469.963 902.279 469.703V469.707C908.526 466.188 909.717 458.612 906.504 452.821Z" fill="black"/>
<path d="M904.929 453.274C904.59 452.584 904.125 451.9 903.541 451.228C902.157 449.531 900.324 448.094 898.058 447.118C897.075 446.6 896 446.105 894.832 445.639L586.387 322.524C577.064 318.803 561.43 318.803 551.394 322.524L79.858 497.364C74.37 499.399 70.22 501.927 67.62 504.588V504.587C67.616 504.591 67.612 504.596 67.608 504.6C67.508 504.703 67.416 504.807 67.32 504.91C67.097 505.147 66.881 505.395 66.673 505.655C66.532 505.829 66.396 506.003 66.268 506.178C66.249 506.205 66.23 506.231 66.211 506.258C65.813 506.81 65.478 507.364 65.216 507.918C63.105 512.021 62.717 517.502 65.522 521.548C66.002 522.29 66.651 523.001 67.473 523.675C67.524 523.717 67.57 523.762 67.621 523.804V523.795C67.957 524.061 68.309 524.324 68.7 524.576L365.609 716.811C377.897 724.767 400.873 724.771 416.501 716.811L899.364 470.862C899.846 470.616 900.291 470.362 900.717 470.102V470.106C906.945 466.6 908.132 459.047 904.929 453.274Z" fill="black"/>
</g>
<path d="M986.111 308.335L987.146 317.285C985.724 316.467 984.115 315.693 982.321 314.977L619.973 170.347C609.021 165.976 590.654 165.976 578.865 170.347L24.9261 375.741C18.4781 378.132 13.6041 381.102 10.5501 384.228V375.847C5.87306 380.428 3.76905 389.55 8.08405 395.774C8.64805 396.645 9.41006 397.481 10.3761 398.273C10.4351 398.323 10.4901 398.375 10.5511 398.424V398.413C10.9451 398.726 11.3601 399.034 11.8191 399.331L360.613 625.16C375.048 634.506 402.039 634.511 420.399 625.16L987.645 336.23C988.212 335.941 988.735 335.642 989.235 335.337V335.342C999.82 329.379 998.015 313.463 986.111 308.335Z" fill="url(#paint0_linear_33_93)"/>
<path d="M982.321 306.598L619.973 161.968C609.021 157.597 590.654 157.597 578.865 161.968L24.9262 367.362C7.62618 373.776 1.63418 384.358 11.8182 390.951L360.613 616.78C375.048 626.126 402.039 626.131 420.398 616.78L987.644 327.85C999.298 321.914 996.801 312.378 982.321 306.598ZM982.129 306.694C982.777 306.953 983.406 307.221 984.008 307.496C984.195 307.582 984.391 307.672 984.572 307.761C985.562 308.231 986.471 308.715 987.312 309.218C987.489 309.317 987.651 309.417 987.807 309.519C987.952 309.606 988.098 309.699 988.228 309.785C989.664 310.716 990.862 311.698 991.823 312.706C991.932 312.819 992.032 312.929 992.133 313.038C992.539 313.49 992.895 313.946 993.21 314.408C993.274 314.515 993.346 314.625 993.418 314.735C993.542 314.936 993.66 315.14 993.764 315.344C994.047 315.876 994.257 316.408 994.411 316.947C994.449 317.067 994.48 317.184 994.504 317.305C994.527 317.367 994.536 317.429 994.543 317.484C994.558 317.543 994.573 317.601 994.572 317.653C994.619 317.835 994.644 318.014 994.654 318.193C994.675 318.359 994.684 318.532 994.684 318.701C994.688 318.773 994.692 318.844 994.688 318.913C994.692 318.955 994.695 318.998 994.685 319.04C994.68 319.219 994.676 319.399 994.657 319.578C994.646 319.591 994.649 319.604 994.654 319.624C994.629 319.836 994.582 320.052 994.543 320.264C994.533 320.284 994.532 320.307 994.531 320.329C994.483 320.538 994.427 320.744 994.348 320.947C994.282 321.173 994.187 321.399 994.093 321.625C994.081 321.661 994.06 321.694 994.047 321.73C993.965 321.92 993.868 322.11 993.754 322.294C993.636 322.517 993.496 322.737 993.347 322.954C993.206 323.174 993.043 323.391 992.865 323.608C992.351 324.256 991.715 324.885 990.954 325.488C990.707 325.696 990.443 325.897 990.163 326.092C989.922 326.267 989.679 326.435 989.413 326.601C989.368 326.624 989.324 326.654 989.287 326.68C989.162 326.766 989.023 326.852 988.867 326.931C988.703 327.037 988.531 327.139 988.351 327.239C988.051 327.414 987.734 327.583 987.403 327.752L420.154 616.626C419.638 616.889 419.124 617.141 418.593 617.384C418.291 617.528 417.981 617.668 417.663 617.802C417.42 617.926 417.16 618.04 416.902 618.143C416.823 618.174 416.734 618.21 416.663 618.246C416.164 618.463 415.658 618.665 415.134 618.866C414.549 619.099 413.947 619.321 413.329 619.533C411.527 620.18 409.665 620.744 407.764 621.226C407.126 621.392 406.49 621.547 405.847 621.688C405.213 621.833 404.57 621.973 403.921 622.098C403.384 622.212 402.831 622.316 402.28 622.41C402.176 622.426 402.08 622.446 401.976 622.462C401.321 622.571 400.665 622.68 400.014 622.769C399.426 622.863 398.832 622.941 398.229 623.013C398.164 623.018 398.098 623.023 398.041 623.034C397.43 623.102 396.809 623.174 396.201 623.232C396.146 623.232 396.109 623.232 396.07 623.242C395.555 623.289 395.043 623.325 394.53 623.362C394.407 623.378 394.287 623.383 394.166 623.388C393.97 623.404 393.766 623.414 393.562 623.424C393.078 623.455 392.586 623.481 392.114 623.497C391.603 623.523 391.095 623.539 390.581 623.539C390.432 623.549 390.266 623.549 390.101 623.549C389.944 623.554 389.768 623.559 389.595 623.554C389.254 623.559 388.923 623.559 388.585 623.554C387.062 623.544 385.566 623.492 384.082 623.388C383.511 623.352 382.942 623.305 382.384 623.253C382.079 623.222 381.773 623.191 381.475 623.165C380.192 623.025 378.934 622.853 377.694 622.645C377.393 622.593 377.092 622.541 376.783 622.484C374.02 621.98 371.372 621.301 368.904 620.44C368.674 620.362 368.428 620.274 368.2 620.186C367.927 620.093 367.665 619.994 367.406 619.886C366.083 619.374 364.827 618.81 363.624 618.185C363.393 618.072 363.166 617.948 362.945 617.829C362.245 617.447 361.569 617.045 360.924 616.627L12.1112 390.841C11.6512 390.543 11.2202 390.234 10.8252 389.919C10.7142 389.827 10.6092 389.739 10.4982 389.647C9.85419 389.1 9.30018 388.532 8.85118 387.942C8.75818 387.832 8.67519 387.719 8.60219 387.602C8.53919 387.522 8.48018 387.434 8.42218 387.346C7.71518 386.272 7.32519 385.145 7.22319 383.987C7.20019 383.863 7.19318 383.74 7.19618 383.612C7.18018 383.354 7.18519 383.1 7.20919 382.838C7.21319 382.722 7.22118 382.598 7.24518 382.475C7.25318 382.352 7.27119 382.225 7.29819 382.094C7.35019 381.742 7.43718 381.384 7.55518 381.025C7.59918 380.866 7.65418 380.714 7.71918 380.558C7.79218 380.319 7.90619 380.077 8.01419 379.831C8.08019 379.687 8.15219 379.546 8.23319 379.401C8.35019 379.152 8.50219 378.896 8.66019 378.643C8.66419 378.636 8.66318 378.625 8.67618 378.614C8.98518 378.106 9.34618 377.602 9.76218 377.094C9.77618 377.083 9.78018 377.076 9.78818 377.062C10.3972 376.307 11.1232 375.561 11.9562 374.826C12.2252 374.579 12.5182 374.328 12.8232 374.085C12.8732 374.049 12.9182 374.01 12.9632 373.97C13.2172 373.763 13.4862 373.555 13.7662 373.355C14.0852 373.112 14.4202 372.869 14.7712 372.637C15.1202 372.394 15.4812 372.159 15.8472 371.927C16.2032 371.699 16.5742 371.471 16.9572 371.25C16.9762 371.243 16.9992 371.229 17.0232 371.214C17.4002 370.99 17.7972 370.769 18.1992 370.552C18.6052 370.328 19.0332 370.108 19.4712 369.894C19.9072 369.67 20.3552 369.454 20.8132 369.244C21.2142 369.056 21.6112 368.875 22.0282 368.698C22.0952 368.673 22.1662 368.641 22.2272 368.613C22.9052 368.322 23.5932 368.039 24.3082 367.763C24.5702 367.66 24.8272 367.565 25.0952 367.465L579.045 162.038C579.229 161.97 579.406 161.904 579.596 161.838C580.107 161.658 580.629 161.487 581.164 161.322C581.216 161.307 581.274 161.29 581.32 161.273C581.646 161.171 581.977 161.076 582.321 160.981C582.704 160.872 583.099 160.767 583.506 160.667C583.894 160.565 584.294 160.468 584.7 160.378C585.093 160.288 585.492 160.201 585.896 160.121C585.922 160.116 585.947 160.111 585.96 160.107C586.358 160.024 586.768 159.947 587.178 159.874C587.594 159.799 588.016 159.726 588.45 159.658C588.865 159.588 589.298 159.525 589.731 159.467C590.088 159.414 590.457 159.365 590.825 159.321C590.895 159.314 590.964 159.306 591.028 159.297C591.46 159.244 591.904 159.195 592.341 159.154C593.64 159.021 594.954 158.924 596.276 158.866C596.301 158.866 596.314 158.866 596.333 158.863C597.221 158.822 598.101 158.798 598.985 158.79C599.004 158.788 599.023 158.79 599.035 158.79C599.474 158.785 599.92 158.783 600.351 158.79C600.602 158.79 600.846 158.792 601.096 158.797C601.521 158.807 601.941 158.814 602.353 158.833C602.622 158.84 602.884 158.85 603.159 158.864C603.777 158.891 604.394 158.927 604.998 158.973C605.222 158.988 605.44 159.004 605.652 159.024C605.864 159.039 606.075 159.058 606.274 159.077C606.722 159.116 607.157 159.159 607.598 159.21C607.816 159.232 608.027 159.256 608.237 159.285C610.211 159.522 612.122 159.845 613.933 160.258C614.081 160.292 614.229 160.326 614.364 160.36C614.561 160.404 614.752 160.45 614.937 160.498C615.928 160.743 616.88 161.018 617.793 161.317C617.946 161.368 618.093 161.417 618.246 161.468C618.772 161.648 619.286 161.838 619.78 162.035L982.129 306.694Z" fill="#DFDFDF"/>
<path d="M967.552 319.697L400.311 604.111C395.91 606.318 389.484 606.318 386.007 604.111L35.8691 381.895C33.3871 380.32 34.7741 377.766 38.9441 376.202L593.845 168.047C596.702 166.975 601.175 166.975 603.827 168.047L966.347 314.568C969.834 315.977 970.381 318.278 967.552 319.697Z" fill="url(#paint1_linear_33_93)"/>
<path d="M966.671 314.406L604.155 167.924C601.335 166.785 596.579 166.785 593.542 167.924L38.6592 376.023C34.2252 377.686 32.7492 380.402 35.3882 382.077L385.5 604.365C389.197 606.712 396.033 606.712 400.713 604.365L967.955 319.86C970.963 318.351 970.38 315.904 966.671 314.406ZM966.347 314.568C969.835 315.978 970.381 318.278 967.552 319.697L400.311 604.111C395.91 606.318 389.484 606.318 386.007 604.111L35.8692 381.895C33.3872 380.32 34.7742 377.766 38.9442 376.202L593.845 168.047C596.702 166.975 601.175 166.975 603.827 168.047L966.347 314.568Z" fill="url(#paint2_linear_33_93)"/>
<path d="M980.208 307.652L617.836 162.772C607.981 158.832 591.458 158.832 580.848 162.772L26.7791 368.53C11.2281 374.305 5.86613 383.815 15.0381 389.738L364.017 615.081C376.998 623.463 401.213 623.463 417.705 615.081L984.954 326.758C995.446 321.426 993.23 312.858 980.208 307.652ZM966.671 314.406C970.38 315.905 970.963 318.351 967.954 319.86L400.712 604.364C396.032 606.711 389.196 606.711 385.499 604.364L35.3871 382.076C32.7491 380.401 34.2241 377.685 38.6581 376.022L593.54 167.923C596.578 166.784 601.334 166.784 604.153 167.923L966.671 314.406Z" fill="#030303"/>
<path d="M23.6753 368.017C23.3523 368.148 23.0293 368.279 22.7113 368.414C22.5443 368.481 22.3883 368.545 22.2273 368.616C22.1663 368.644 22.0953 368.676 22.0283 368.701C21.6163 368.882 21.2103 369.066 20.8133 369.247C20.3503 369.464 19.9133 369.677 19.4713 369.897C19.0383 370.114 18.6113 370.334 18.1993 370.555C17.8023 370.776 17.4053 370.996 17.0233 371.217C17.0003 371.231 16.9773 371.246 16.9573 371.253C16.5803 371.478 16.2093 371.706 15.8473 371.93C15.4713 372.165 15.1113 372.401 14.7713 372.64C14.4263 372.876 14.0853 373.115 13.7663 373.358C13.4913 373.562 13.2223 373.769 12.9633 373.973C12.9183 374.012 12.8733 374.052 12.8233 374.088C12.5243 374.335 12.2253 374.582 11.9563 374.829C11.1283 375.567 10.4023 376.314 9.78826 377.065C9.78026 377.079 9.77626 377.087 9.76226 377.097C9.35626 377.601 8.99126 378.112 8.67626 378.617C8.66226 378.628 8.66427 378.639 8.66027 378.646C8.50227 378.898 8.36027 379.151 8.23327 379.404C8.15127 379.548 8.08028 379.689 8.01428 379.834C7.91028 380.073 7.80226 380.318 7.71926 380.561C7.65426 380.716 7.59926 380.868 7.55526 381.028C7.44726 381.383 7.36027 381.741 7.29827 382.097C7.28027 382.224 7.26226 382.351 7.24526 382.478C7.23126 382.598 7.22327 382.721 7.20927 382.841C7.18527 383.102 7.18027 383.357 7.19627 383.615C7.20327 383.739 7.21628 383.866 7.22328 383.99C7.32528 385.148 7.71527 386.275 8.42227 387.349C8.47527 387.433 8.53427 387.521 8.60227 387.605C8.67527 387.722 8.75827 387.836 8.85127 387.945C9.30027 388.535 9.85427 389.103 10.4983 389.65C10.6093 389.742 10.7143 389.83 10.8253 389.922C11.2203 390.238 11.6513 390.547 12.1113 390.844L360.923 616.629C361.568 617.046 362.244 617.449 362.944 617.831C363.164 617.95 363.392 618.074 363.623 618.187C364.827 618.812 366.082 619.376 367.405 619.888C367.665 619.997 367.927 620.095 368.199 620.188C368.427 620.276 368.673 620.364 368.903 620.442C371.371 621.302 374.019 621.982 376.782 622.486C377.091 622.543 377.392 622.595 377.693 622.647C378.933 622.855 380.191 623.026 381.474 623.167C381.772 623.193 382.077 623.224 382.383 623.255C382.941 623.307 383.51 623.354 384.081 623.39C385.565 623.494 387.061 623.546 388.584 623.556C388.923 623.561 389.253 623.561 389.594 623.556C389.767 623.561 389.943 623.556 390.1 623.551C390.265 623.551 390.431 623.551 390.58 623.541C391.094 623.541 391.603 623.525 392.113 623.499C392.585 623.483 393.077 623.457 393.561 623.426C393.765 623.416 393.97 623.405 394.165 623.39C394.286 623.385 394.406 623.38 394.529 623.364C395.042 623.328 395.554 623.291 396.069 623.244C396.108 623.234 396.145 623.234 396.2 623.234C396.809 623.177 397.43 623.104 398.04 623.036C398.097 623.026 398.162 623.02 398.228 623.015C398.822 622.937 399.417 622.859 400.013 622.771C400.664 622.683 401.32 622.574 401.975 622.464C402.079 622.448 402.175 622.428 402.279 622.412C402.822 622.313 403.375 622.209 403.92 622.1C404.569 621.975 405.212 621.835 405.846 621.69C406.489 621.55 407.125 621.394 407.763 621.228C409.656 620.741 411.517 620.176 413.328 619.535C413.938 619.318 414.529 619.101 415.133 618.868C415.639 618.667 416.154 618.46 416.662 618.248C416.733 618.212 416.822 618.176 416.901 618.145C417.159 618.042 417.418 617.928 417.662 617.804C417.461 617.897 417.252 617.985 417.043 618.072C416.515 618.294 415.98 618.511 415.446 618.718C415.188 618.821 414.922 618.92 414.658 619.007C414.331 619.136 414.006 619.255 413.672 619.369C413.17 619.55 412.661 619.716 412.155 619.871C411.608 620.047 411.052 620.218 410.49 620.373C410.024 620.508 409.559 620.632 409.087 620.751C408.091 621.015 407.08 621.259 406.058 621.461C405.75 621.534 405.426 621.596 405.112 621.653C404.625 621.752 404.129 621.845 403.635 621.928C403.588 621.933 403.549 621.944 403.502 621.949C402.933 622.043 402.374 622.131 401.806 622.214C401.777 622.219 401.749 622.224 401.73 622.224C401.324 622.281 400.918 622.338 400.514 622.385C400.165 622.432 399.808 622.473 399.461 622.51C399.386 622.52 399.302 622.526 399.218 622.531C398.655 622.593 398.075 622.645 397.505 622.692C396.954 622.739 396.394 622.78 395.829 622.806C395.707 622.822 395.586 622.827 395.468 622.822C394.927 622.864 394.372 622.884 393.81 622.889C393.2 622.91 392.583 622.915 391.977 622.915C391.453 622.92 390.912 622.915 390.373 622.899C390.236 622.894 390.089 622.894 389.934 622.889C389.406 622.868 388.869 622.842 388.333 622.816C387.723 622.79 387.126 622.748 386.541 622.691C386.062 622.655 385.593 622.613 385.137 622.556C384.892 622.54 384.66 622.509 384.418 622.483C384.131 622.452 383.836 622.415 383.543 622.369C383.256 622.338 382.979 622.301 382.704 622.255C382.153 622.172 381.602 622.089 381.063 621.99C380.736 621.933 380.4 621.871 380.076 621.803C379.31 621.652 378.539 621.486 377.79 621.3C377.555 621.243 377.311 621.181 377.068 621.119C376.703 621.026 376.349 620.927 375.986 620.824C375.528 620.694 375.073 620.555 374.628 620.41C374.173 620.27 373.73 620.115 373.288 619.959C373.262 619.954 373.246 619.943 373.23 619.933C372.745 619.762 372.271 619.586 371.818 619.4C371.794 619.384 371.768 619.379 371.752 619.369C371.408 619.229 371.063 619.09 370.749 618.935C369.188 618.258 367.741 617.489 366.407 616.628L13.3343 388.638C13.0053 388.426 12.6903 388.202 12.4053 387.979C12.2393 387.862 12.0833 387.741 11.9423 387.62C11.8143 387.518 11.6963 387.411 11.5883 387.302C11.5243 387.251 11.4763 387.2 11.4173 387.152C11.2583 387.009 11.1143 386.867 10.9903 386.717C10.9713 386.695 10.9493 386.68 10.9303 386.659C10.8403 386.571 10.7613 386.48 10.6813 386.389C10.6443 386.345 10.6073 386.301 10.5703 386.258C10.5573 386.24 10.5503 386.225 10.5273 386.21C10.4103 386.075 10.3093 385.94 10.2113 385.798C10.1663 385.74 10.1223 385.681 10.0883 385.619C9.95227 385.422 9.82627 385.222 9.71527 385.021C9.60427 384.821 9.49427 384.62 9.41427 384.42C9.41227 384.409 9.40727 384.406 9.40527 384.395C9.35427 384.293 9.30927 384.195 9.28427 384.089C9.27727 384.075 9.27527 384.063 9.26827 384.049C9.21627 383.936 9.17927 383.824 9.14327 383.711C9.14127 383.7 9.13627 383.696 9.13427 383.685C9.04327 383.369 8.97227 383.057 8.92727 382.741C8.90327 382.607 8.89427 382.473 8.87927 382.335C8.85827 382.114 8.86127 381.889 8.86527 381.664C8.85927 381.552 8.86927 381.439 8.88827 381.323C8.89227 381.207 8.90528 381.088 8.91928 380.968C8.92628 380.874 8.94328 380.776 8.97528 380.679C8.99528 380.495 9.03927 380.307 9.09327 380.115C9.14127 379.88 9.21427 379.642 9.31227 379.4C9.36827 379.22 9.44327 379.032 9.53327 378.844C9.54027 378.819 9.55627 378.79 9.56327 378.765C9.59027 378.704 9.62227 378.646 9.64527 378.592C9.65727 378.57 9.66927 378.549 9.67227 378.531C9.77227 378.34 9.87227 378.149 9.97727 377.962C10.0773 377.771 10.1883 377.588 10.3043 377.408C10.3183 377.397 10.3263 377.383 10.3343 377.368C10.3793 377.289 10.4333 377.206 10.5023 377.123C10.6053 376.954 10.7283 376.789 10.8583 376.627C10.8963 376.573 10.9343 376.519 10.9823 376.462C11.1493 376.247 11.3163 376.031 11.5143 375.816C11.6433 375.655 11.7833 375.5 11.9393 375.346C11.9473 375.332 11.9653 375.314 11.9833 375.296C12.0973 375.174 12.2123 375.052 12.3323 374.934C12.5363 374.733 12.7453 374.526 12.9743 374.322C12.9883 374.311 13.0013 374.301 13.0093 374.286C13.1623 374.15 13.3143 374.014 13.4823 373.878C13.5623 373.803 13.6523 373.724 13.7483 373.649C13.9203 373.506 14.0913 373.363 14.2743 373.227C14.5003 373.041 14.7513 372.852 15.0133 372.67C15.1963 372.534 15.3783 372.399 15.5673 372.267C15.6413 372.217 15.7053 372.171 15.7783 372.121C15.9863 371.982 16.1933 371.843 16.4153 371.704C16.5393 371.618 16.6783 371.533 16.8173 371.447C16.8503 371.429 16.8673 371.411 16.9003 371.394C17.1453 371.241 17.3973 371.091 17.6573 370.938C17.9213 370.778 18.2013 370.618 18.4923 370.465C18.5293 370.44 18.5613 370.422 18.6043 370.401C18.7023 370.348 18.8003 370.294 18.8983 370.241C19.1643 370.092 19.4503 369.946 19.7373 369.8C19.7563 369.793 19.7603 369.786 19.7793 369.779C20.0133 369.658 20.2543 369.541 20.5093 369.424C20.6923 369.328 20.8893 369.232 21.0933 369.14C21.5043 368.949 21.9293 368.757 22.3603 368.569C22.7823 368.382 23.2273 368.194 23.6753 368.017Z" fill="url(#paint3_linear_33_93)"/>
<path d="M25.0941 367.468C24.6101 367.647 24.1371 367.83 23.6731 368.017C24.1391 367.831 24.6111 367.647 25.0941 367.468Z" fill="#DFDFDF"/>
<path d="M982.129 306.694L619.779 162.041C619.285 161.844 618.771 161.654 618.245 161.474C618.092 161.423 617.945 161.374 617.792 161.323C616.879 161.024 615.927 160.749 614.936 160.504C614.752 160.455 614.561 160.409 614.363 160.366C614.222 160.33 614.074 160.296 613.932 160.264C612.121 159.851 610.21 159.529 608.236 159.291C608.025 159.267 607.808 159.24 607.597 159.216C607.156 159.165 606.721 159.121 606.273 159.083C606.068 159.066 605.856 159.047 605.651 159.03C605.433 159.013 605.215 158.996 604.997 158.979C604.387 158.935 603.769 158.899 603.158 158.87C602.883 158.855 602.621 158.846 602.352 158.839C601.933 158.822 601.508 158.812 601.095 158.803C600.845 158.798 600.6 158.796 600.35 158.796C599.912 158.791 599.473 158.791 599.034 158.796C599.022 158.796 599.003 158.794 598.984 158.796C598.106 158.806 597.213 158.83 596.332 158.869C596.313 158.872 596.301 158.872 596.275 158.872C594.959 158.933 593.645 159.029 592.34 159.16C591.903 159.201 591.465 159.252 591.027 159.303C590.963 159.313 590.894 159.32 590.824 159.327C590.462 159.373 590.093 159.421 589.73 159.473C589.297 159.531 588.87 159.597 588.449 159.664C588.022 159.729 587.6 159.802 587.177 159.88C586.774 159.955 586.364 160.033 585.959 160.113C585.946 160.118 585.92 160.123 585.895 160.127C585.497 160.21 585.098 160.297 584.699 160.384C584.3 160.476 583.899 160.573 583.505 160.673C583.104 160.775 582.716 160.877 582.32 160.987C581.989 161.082 581.651 161.179 581.319 161.279C581.273 161.296 581.215 161.313 581.163 161.328C581.033 161.367 580.915 161.406 580.791 161.447C580.882 161.418 580.98 161.391 581.071 161.362C581.41 161.255 581.761 161.153 582.117 161.058C582.286 161.009 582.461 160.963 582.635 160.922C582.849 160.861 583.063 160.805 583.282 160.752C583.657 160.66 584.031 160.572 584.411 160.487C584.733 160.414 585.061 160.344 585.382 160.281C585.658 160.225 585.927 160.172 586.203 160.121C586.728 160.024 587.246 159.934 587.77 159.852C588.006 159.816 588.248 159.782 588.49 159.748C588.816 159.697 589.153 159.651 589.483 159.612C589.731 159.581 589.979 159.549 590.233 159.52C590.366 159.503 590.506 159.489 590.639 159.476C590.899 159.444 591.159 159.418 591.425 159.394C591.786 159.358 592.153 159.329 592.507 159.299C592.716 159.282 592.93 159.268 593.145 159.253C593.448 159.229 593.757 159.212 594.06 159.197C594.432 159.175 594.81 159.156 595.194 159.144C595.295 159.139 595.389 159.137 595.483 159.134C595.766 159.122 596.056 159.112 596.351 159.11C596.496 159.103 596.64 159.1 596.778 159.1C597.124 159.093 597.463 159.088 597.813 159.093C598.171 159.091 598.54 159.093 598.909 159.1C599.003 159.102 599.103 159.102 599.209 159.105C599.572 159.115 599.94 159.127 600.309 159.139C600.728 159.151 601.14 159.171 601.545 159.197C601.876 159.214 602.2 159.233 602.517 159.26C602.686 159.267 602.854 159.279 603.016 159.294C603.221 159.311 603.427 159.328 603.625 159.347C603.825 159.362 604.017 159.378 604.21 159.4C604.595 159.439 604.981 159.478 605.359 159.524C605.595 159.553 605.824 159.58 606.054 159.611C606.593 159.681 607.126 159.759 607.664 159.844C607.874 159.878 608.078 159.914 608.282 159.951C608.492 159.985 608.702 160.024 608.912 160.063C609.252 160.124 609.591 160.194 609.93 160.265C610.269 160.335 610.608 160.411 610.941 160.488C611.305 160.568 611.661 160.661 612.017 160.753C612.282 160.819 612.54 160.892 612.791 160.967C613.921 161.283 614.998 161.644 616.003 162.045L982.606 308.616C983.944 309.151 985.162 309.719 986.259 310.319C986.506 310.441 986.735 310.573 986.963 310.705C986.979 310.712 986.989 310.721 987.013 310.731C987.317 310.905 987.609 311.085 987.893 311.268C987.909 311.274 987.925 311.281 987.935 311.291C988.194 311.458 988.454 311.626 988.692 311.796C988.937 311.963 989.176 312.134 989.4 312.305C989.579 312.44 989.75 312.573 989.915 312.708C990.025 312.798 990.135 312.889 990.237 312.976C990.569 313.253 990.873 313.538 991.155 313.819C991.28 313.939 991.398 314.062 991.509 314.181C991.697 314.378 991.865 314.579 992.032 314.779C992.123 314.879 992.2 314.98 992.27 315.083C992.363 315.19 992.441 315.297 992.511 315.401C992.57 315.488 992.635 315.573 992.679 315.66C992.801 315.825 992.903 315.994 992.998 316.166C993.132 316.377 993.245 316.591 993.338 316.809C993.424 317.001 993.51 317.193 993.587 317.381C993.608 317.436 993.622 317.488 993.642 317.537C993.713 317.729 993.77 317.921 993.811 318.106C993.866 318.321 993.915 318.539 993.942 318.754C993.986 318.953 994.008 319.149 993.998 319.338C994.016 319.381 994.02 319.423 994.009 319.465C994.024 319.664 994.016 319.86 994 320.053C993.986 320.252 993.965 320.455 993.928 320.651C993.928 320.68 993.929 320.71 993.921 320.736C993.901 320.857 993.875 320.981 993.841 321.103C993.812 321.244 993.768 321.384 993.724 321.525C993.726 321.532 993.721 321.541 993.716 321.551C993.65 321.748 993.575 321.941 993.495 322.138C993.492 322.154 993.481 322.167 993.478 322.184C993.405 322.355 993.318 322.525 993.222 322.692C993.17 322.8 993.11 322.912 993.035 323.017C992.84 323.368 992.585 323.713 992.299 324.052C992.172 324.213 992.037 324.371 991.888 324.529C991.717 324.72 991.524 324.908 991.322 325.092C991.146 325.263 990.956 325.435 990.742 325.603C990.609 325.715 990.469 325.824 990.313 325.933C990.211 326.022 990.095 326.111 989.97 326.197C989.722 326.375 989.46 326.554 989.189 326.729C989.082 326.798 988.975 326.868 988.86 326.934C989.016 326.855 989.155 326.769 989.28 326.683C989.317 326.657 989.361 326.627 989.406 326.604C989.664 326.435 989.913 326.264 990.156 326.095C990.434 325.894 990.691 325.696 990.947 325.491C991.7 324.884 992.336 324.256 992.858 323.611C993.036 323.394 993.2 323.177 993.34 322.957C993.489 322.74 993.629 322.521 993.747 322.297C993.852 322.11 993.949 321.92 994.04 321.733C994.053 321.697 994.073 321.664 994.086 321.628C994.181 321.402 994.276 321.176 994.341 320.95C994.412 320.744 994.468 320.538 994.524 320.332C994.525 320.309 994.527 320.286 994.536 320.267C994.576 320.055 994.622 319.839 994.647 319.627C994.642 319.607 994.639 319.594 994.65 319.581C994.669 319.401 994.674 319.222 994.678 319.043C994.689 319.001 994.685 318.958 994.681 318.916C994.685 318.848 994.681 318.776 994.677 318.704C994.677 318.535 994.669 318.362 994.647 318.196C994.637 318.017 994.613 317.838 994.565 317.656C994.566 317.604 994.551 317.545 994.536 317.487C994.529 317.432 994.52 317.37 994.497 317.308C994.473 317.188 994.443 317.071 994.404 316.95C994.25 316.411 994.04 315.879 993.757 315.347C993.654 315.143 993.536 314.939 993.411 314.738C993.339 314.628 993.267 314.518 993.203 314.411C992.888 313.949 992.532 313.493 992.126 313.041C992.025 312.931 991.925 312.822 991.816 312.709C990.855 311.7 989.657 310.719 988.221 309.788C988.091 309.701 987.944 309.608 987.8 309.522C987.644 309.419 987.482 309.32 987.305 309.221C986.463 308.718 985.555 308.234 984.565 307.764C984.384 307.674 984.189 307.585 984.001 307.499C983.406 307.221 982.777 306.952 982.129 306.694Z" fill="url(#paint4_linear_33_93)"/>
<path d="M982.609 308.612L980.208 307.652C993.23 312.858 995.446 321.426 984.955 326.759L417.705 615.082C401.214 623.464 376.999 623.464 364.017 615.082L366.408 616.626C367.741 617.487 369.189 618.256 370.75 618.933C371.063 619.088 371.408 619.228 371.753 619.367C371.769 619.377 371.795 619.383 371.819 619.398C372.273 619.584 372.747 619.76 373.231 619.931C373.247 619.941 373.263 619.952 373.289 619.957C373.731 620.112 374.174 620.268 374.629 620.408C375.074 620.553 375.529 620.693 375.987 620.822C376.35 620.926 376.704 621.024 377.069 621.117C377.312 621.179 377.556 621.241 377.791 621.298C378.539 621.485 379.311 621.651 380.077 621.801C380.402 621.868 380.737 621.931 381.064 621.988C381.603 622.087 382.154 622.17 382.705 622.253C382.98 622.3 383.256 622.336 383.544 622.367C383.837 622.414 384.132 622.45 384.419 622.481C384.651 622.512 384.893 622.538 385.138 622.554C385.594 622.611 386.063 622.653 386.542 622.689C387.137 622.741 387.734 622.782 388.334 622.814C388.87 622.84 389.407 622.866 389.935 622.887C390.09 622.892 390.237 622.892 390.374 622.897C390.904 622.907 391.445 622.913 391.978 622.913C392.584 622.913 393.2 622.908 393.811 622.887C394.364 622.877 394.911 622.851 395.469 622.82C395.587 622.825 395.708 622.82 395.83 622.804C396.387 622.773 396.937 622.736 397.506 622.69C398.076 622.643 398.655 622.591 399.219 622.529C399.303 622.524 399.386 622.519 399.462 622.508C399.809 622.472 400.166 622.43 400.515 622.383C400.919 622.336 401.325 622.279 401.731 622.222C401.749 622.222 401.778 622.217 401.807 622.212C402.374 622.129 402.934 622.041 403.503 621.947C403.55 621.942 403.589 621.931 403.636 621.926C404.13 621.843 404.626 621.749 405.113 621.651C405.427 621.594 405.751 621.532 406.059 621.459C407.08 621.257 408.092 621.013 409.088 620.749C409.561 620.63 410.025 620.506 410.491 620.371C411.045 620.21 411.609 620.045 412.156 619.869C412.663 619.714 413.171 619.548 413.673 619.367C414.006 619.253 414.332 619.134 414.659 619.005C414.923 618.917 415.189 618.819 415.447 618.716C415.981 618.509 416.517 618.292 417.044 618.07C417.253 617.982 417.462 617.895 417.663 617.802C417.981 617.668 418.291 617.529 418.593 617.384C419.124 617.142 419.638 616.889 420.154 616.626L987.4 327.751C987.731 327.582 988.048 327.413 988.348 327.238C988.528 327.139 988.7 327.036 988.864 326.93C988.979 326.864 989.086 326.795 989.193 326.725C989.464 326.55 989.726 326.372 989.974 326.193C990.099 326.107 990.215 326.018 990.317 325.929C990.472 325.82 990.613 325.711 990.746 325.599C990.959 325.431 991.15 325.259 991.326 325.088C991.528 324.903 991.713 324.712 991.892 324.525C992.042 324.367 992.177 324.209 992.303 324.048C992.589 323.709 992.844 323.364 993.039 323.013C993.114 322.908 993.173 322.796 993.226 322.688C993.322 322.521 993.409 322.35 993.482 322.18C993.485 322.164 993.496 322.15 993.499 322.134C993.58 321.937 993.654 321.744 993.72 321.547C993.725 321.537 993.73 321.527 993.728 321.521C993.772 321.38 993.816 321.239 993.845 321.099C993.879 320.978 993.906 320.854 993.925 320.732C993.933 320.706 993.933 320.676 993.932 320.647C993.969 320.451 993.989 320.248 994.004 320.049C994.018 319.85 994.019 319.657 994.013 319.461C994.024 319.419 994.02 319.376 994.002 319.334C993.995 319.138 993.982 318.946 993.946 318.75C993.92 318.535 993.871 318.317 993.815 318.102C993.766 317.913 993.709 317.721 993.646 317.533C993.626 317.484 993.613 317.432 993.591 317.377C993.513 317.188 993.427 316.997 993.342 316.805C993.243 316.591 993.13 316.376 993.002 316.162C992.907 315.99 992.805 315.821 992.683 315.656C992.639 315.568 992.58 315.481 992.515 315.397C992.445 315.293 992.366 315.186 992.274 315.079C992.204 314.975 992.127 314.875 992.036 314.775C991.869 314.574 991.701 314.374 991.513 314.177C991.403 314.057 991.284 313.934 991.159 313.815C990.877 313.534 990.572 313.25 990.241 312.972C990.139 312.885 990.029 312.794 989.919 312.704C989.754 312.569 989.583 312.436 989.404 312.301C989.18 312.13 988.941 311.959 988.696 311.792C988.457 311.621 988.198 311.454 987.939 311.287C987.929 311.277 987.913 311.271 987.897 311.264C987.612 311.081 987.321 310.901 987.017 310.727C986.993 310.717 986.983 310.708 986.967 310.701C986.739 310.569 986.51 310.437 986.263 310.315C985.165 309.715 983.947 309.147 982.609 308.612Z" fill="url(#paint5_linear_33_93)"/>
<path d="M617.835 162.772L616.005 162.04C615 161.638 613.923 161.278 612.793 160.962C612.542 160.887 612.284 160.814 612.019 160.748C611.663 160.656 611.306 160.563 610.943 160.483C610.611 160.405 610.272 160.33 609.932 160.26C609.593 160.19 609.254 160.119 608.914 160.058C608.704 160.019 608.494 159.98 608.284 159.946C608.08 159.91 607.876 159.873 607.666 159.839C607.128 159.754 606.595 159.676 606.056 159.606C605.827 159.575 605.597 159.548 605.361 159.519C604.983 159.473 604.597 159.434 604.212 159.395C604.02 159.373 603.827 159.356 603.627 159.342C603.428 159.323 603.223 159.306 603.018 159.289C602.856 159.274 602.688 159.262 602.519 159.255C602.202 159.228 601.878 159.209 601.547 159.192C601.136 159.168 600.724 159.148 600.311 159.134C599.942 159.122 599.574 159.11 599.211 159.1C599.105 159.098 599.004 159.097 598.911 159.095C598.548 159.09 598.178 159.088 597.815 159.088C597.476 159.088 597.131 159.091 596.78 159.095C596.642 159.095 596.498 159.097 596.353 159.105C596.064 159.11 595.775 159.119 595.485 159.129C595.391 159.131 595.296 159.134 595.196 159.139C594.818 159.154 594.441 159.168 594.062 159.192C593.76 159.207 593.457 159.226 593.147 159.248C592.932 159.262 592.717 159.277 592.509 159.294C592.155 159.323 591.788 159.352 591.427 159.389C591.161 159.413 590.901 159.44 590.641 159.471C590.508 159.483 590.368 159.498 590.235 159.515C589.981 159.544 589.733 159.576 589.485 159.607C589.155 159.646 588.817 159.692 588.492 159.743C588.25 159.777 588.008 159.811 587.772 159.847C587.248 159.929 586.73 160.019 586.205 160.116C585.93 160.167 585.66 160.22 585.384 160.276C585.063 160.339 584.735 160.409 584.413 160.482C584.033 160.567 583.659 160.655 583.284 160.747C583.065 160.8 582.851 160.856 582.637 160.917C582.463 160.958 582.288 161.004 582.119 161.053C581.769 161.15 581.418 161.252 581.073 161.357C580.982 161.386 580.884 161.413 580.793 161.442C580.545 161.52 580.303 161.6 580.062 161.68C579.905 161.734 579.754 161.785 579.597 161.838C579.407 161.904 579.23 161.97 579.046 162.038L25.0961 367.465C24.8291 367.564 24.5711 367.66 24.3091 367.763C24.0951 367.848 23.8901 367.929 23.6761 368.014C23.3531 368.145 23.0301 368.276 22.7121 368.411C22.5931 368.461 22.4801 368.514 22.3621 368.563C21.9311 368.751 21.5061 368.943 21.0951 369.134C20.8921 369.226 20.6941 369.322 20.5111 369.418C20.2561 369.535 20.0161 369.652 19.7811 369.773C19.7621 369.78 19.7581 369.787 19.7391 369.794C19.4531 369.94 19.1661 370.085 18.9001 370.235C18.8021 370.288 18.7041 370.342 18.6061 370.395C18.5641 370.416 18.5311 370.434 18.4941 370.459C18.2031 370.612 17.9241 370.772 17.6591 370.932C17.3981 371.085 17.1471 371.235 16.9021 371.388C16.8691 371.406 16.8521 371.424 16.8191 371.441C16.6801 371.527 16.5411 371.612 16.4171 371.698C16.1951 371.837 15.9871 371.976 15.7801 372.115C15.7061 372.165 15.6421 372.211 15.5691 372.261C15.3811 372.393 15.1981 372.529 15.0151 372.664C14.7531 372.846 14.5021 373.035 14.2761 373.221C14.0931 373.357 13.9211 373.5 13.7501 373.643C13.6541 373.718 13.5641 373.797 13.4841 373.872C13.3161 374.008 13.1641 374.144 13.0111 374.28C13.0031 374.294 12.9891 374.305 12.9761 374.316C12.7471 374.52 12.5381 374.728 12.3341 374.928C12.2141 375.046 12.1001 375.168 11.9851 375.29C11.9671 375.308 11.9491 375.326 11.9411 375.34C11.7911 375.498 11.6411 375.656 11.5161 375.81C11.3181 376.025 11.1511 376.241 10.9841 376.456C10.9361 376.513 10.8981 376.567 10.8601 376.621C10.7361 376.786 10.6131 376.952 10.5041 377.117C10.4341 377.2 10.3801 377.282 10.3361 377.362C10.3281 377.376 10.3201 377.391 10.3061 377.402C10.1911 377.593 10.0801 377.776 9.97913 377.956C9.87313 378.143 9.77412 378.334 9.67412 378.525C9.67212 378.543 9.65912 378.565 9.64712 378.586C9.62412 378.64 9.59112 378.698 9.56512 378.759C9.55812 378.784 9.54212 378.813 9.53512 378.838C9.45412 379.022 9.38912 379.206 9.31412 379.394C9.22612 379.632 9.15312 379.871 9.09512 380.109C9.04112 380.301 8.99613 380.489 8.97713 380.673C8.94513 380.771 8.92813 380.868 8.92113 380.962C8.90713 381.081 8.89412 381.201 8.89012 381.317C8.87112 381.433 8.86113 381.545 8.86713 381.658C8.86313 381.883 8.86012 382.107 8.88112 382.329C8.89612 382.467 8.90512 382.601 8.92912 382.735C8.97412 383.051 9.04412 383.363 9.13612 383.679C9.13812 383.69 9.14313 383.694 9.14513 383.705C9.18113 383.818 9.22413 383.934 9.27013 384.043C9.27713 384.057 9.27912 384.069 9.28612 384.083C9.31112 384.188 9.35612 384.287 9.40712 384.389C9.40812 384.4 9.41412 384.403 9.41612 384.414C9.49612 384.614 9.60712 384.815 9.71712 385.015C9.82812 385.215 9.95412 385.416 10.0901 385.613C10.1251 385.675 10.1691 385.733 10.2131 385.792C10.3101 385.934 10.4121 386.069 10.5291 386.204C10.5521 386.219 10.5591 386.233 10.5721 386.252C10.6091 386.296 10.6461 386.34 10.6831 386.383C10.7631 386.474 10.8431 386.566 10.9321 386.653C10.9501 386.675 10.9731 386.689 10.9921 386.711C11.1261 386.857 11.2701 387 11.4191 387.146C11.4771 387.194 11.5261 387.245 11.5901 387.296C11.6981 387.406 11.8261 387.508 11.9441 387.614C12.0851 387.735 12.2411 387.856 12.4071 387.973C12.6911 388.196 13.0071 388.42 13.3361 388.632L15.0401 389.732C5.86811 383.81 11.2301 374.299 26.7811 368.524L580.849 162.766C591.458 158.832 607.98 158.832 617.835 162.772Z" fill="url(#paint6_linear_33_93)"/>
<path d="M877.775 5.11109L895.268 17.2571C898.428 12.7061 897.069 6.29209 892.244 2.94209C887.411 -0.41391 880.934 0.560089 877.775 5.11109Z" fill="url(#paint7_linear_33_93)"/>
<path d="M665.879 310.289L658.324 328.042L669.378 335.717L683.372 322.435L895.267 17.2571L877.775 5.11108L665.879 310.289Z" fill="url(#paint8_linear_33_93)"/>
<path d="M654.694 349.648L668.775 336.291L657.996 328.806L650.402 346.667C649.319 349.209 652.691 351.551 654.694 349.648Z" fill="url(#paint9_linear_33_93)"/>
<defs>
<linearGradient id="paint0_linear_33_93" x1="369.577" y1="244.632" x2="721.156" y2="540.26" gradientUnits="userSpaceOnUse">
<stop stop-color="#4D4D4D"/>
<stop offset="0.3103" stop-color="#9C9C9C"/>
<stop offset="0.5618" stop-color="#DFDFDF"/>
<stop offset="0.6175" stop-color="#D7D7D7"/>
<stop offset="0.7048" stop-color="#C1C1C1"/>
<stop offset="0.8127" stop-color="#9C9C9C"/>
<stop offset="0.9359" stop-color="#6A6A6A"/>
<stop offset="1" stop-color="#4D4D4D"/>
</linearGradient>
<linearGradient id="paint1_linear_33_93" x1="720.429" y1="567.181" x2="283.503" y2="130.255" gradientUnits="userSpaceOnUse">
<stop/>
<stop offset="0.2895" stop-color="#060606"/>
<stop offset="0.6936" stop-color="#191919"/>
<stop offset="1" stop-color="#2B2B2B"/>
</linearGradient>
<linearGradient id="paint2_linear_33_93" x1="720.691" y1="567.507" x2="283.194" y2="130.01" gradientUnits="userSpaceOnUse">
<stop/>
<stop offset="0.2895" stop-color="#060606"/>
<stop offset="0.6936" stop-color="#191919"/>
<stop offset="1" stop-color="#2B2B2B"/>
</linearGradient>
<linearGradient id="paint3_linear_33_93" x1="212.424" y1="623.556" x2="212.424" y2="368.017" gradientUnits="userSpaceOnUse">
<stop stop-color="#F1F1F1"/>
<stop offset="0.0591" stop-color="#DDDDDD"/>
<stop offset="0.1453" stop-color="#C7C7C7"/>
<stop offset="0.2467" stop-color="#B6B6B6"/>
<stop offset="0.3711" stop-color="#AAAAAA"/>
<stop offset="0.5437" stop-color="#A3A3A3"/>
<stop offset="1" stop-color="#A1A1A1"/>
</linearGradient>
<linearGradient id="paint4_linear_33_93" x1="787.741" y1="326.931" x2="787.741" y2="158.79" gradientUnits="userSpaceOnUse">
<stop stop-color="#A1A1A1"/>
<stop offset="0.4563" stop-color="#A3A3A3"/>
<stop offset="0.6289" stop-color="#AAAAAA"/>
<stop offset="0.7533" stop-color="#B6B6B6"/>
<stop offset="0.8547" stop-color="#C7C7C7"/>
<stop offset="0.9409" stop-color="#DDDDDD"/>
<stop offset="1" stop-color="#F1F1F1"/>
</linearGradient>
<linearGradient id="paint5_linear_33_93" x1="679.019" y1="622.913" x2="679.019" y2="307.652" gradientUnits="userSpaceOnUse">
<stop stop-color="#C9C9C9"/>
<stop offset="0.4778" stop-color="#F1F1F1"/>
<stop offset="0.636" stop-color="#ECECEC"/>
<stop offset="0.819" stop-color="#DEDEDE"/>
<stop offset="1" stop-color="#C9C9C9"/>
</linearGradient>
<linearGradient id="paint6_linear_33_93" x1="313.35" y1="389.738" x2="313.35" y2="159.089" gradientUnits="userSpaceOnUse">
<stop stop-color="#C9C9C9"/>
<stop offset="0.4778" stop-color="#F1F1F1"/>
<stop offset="0.636" stop-color="#ECECEC"/>
<stop offset="0.819" stop-color="#DEDEDE"/>
<stop offset="1" stop-color="#C9C9C9"/>
</linearGradient>
<linearGradient id="paint7_linear_33_93" x1="896.437" y1="8.16392" x2="879.185" y2="11.8004" gradientUnits="userSpaceOnUse">
<stop stop-color="#808080"/>
<stop offset="0.2847" stop-color="#BABABA"/>
<stop offset="0.3665" stop-color="#CECECE"/>
<stop offset="0.4975" stop-color="#E9E9E9"/>
<stop offset="0.6144" stop-color="#F9F9F9"/>
<stop offset="0.7043" stop-color="white"/>
<stop offset="0.8294" stop-color="#FCFCFC"/>
<stop offset="0.927" stop-color="#F2F2F2"/>
<stop offset="1" stop-color="#E5E5E5"/>
</linearGradient>
<linearGradient id="paint8_linear_33_93" x1="783.942" y1="177.611" x2="766.43" y2="165.453" gradientUnits="userSpaceOnUse">
<stop stop-color="#808080"/>
<stop offset="0.2847" stop-color="#BABABA"/>
<stop offset="0.3665" stop-color="#CECECE"/>
<stop offset="0.4975" stop-color="#E9E9E9"/>
<stop offset="0.6144" stop-color="#F9F9F9"/>
<stop offset="0.7043" stop-color="white"/>
<stop offset="0.8294" stop-color="#FCFCFC"/>
<stop offset="0.927" stop-color="#F2F2F2"/>
<stop offset="1" stop-color="#E5E5E5"/>
</linearGradient>
<linearGradient id="paint9_linear_33_93" x1="662.779" y1="344.929" x2="651.999" y2="337.445" gradientUnits="userSpaceOnUse">
<stop stop-color="#808080"/>
<stop offset="0.2847" stop-color="#BABABA"/>
<stop offset="0.3665" stop-color="#CECECE"/>
<stop offset="0.4975" stop-color="#E9E9E9"/>
<stop offset="0.6144" stop-color="#F9F9F9"/>
<stop offset="0.7043" stop-color="white"/>
<stop offset="0.8294" stop-color="#FCFCFC"/>
<stop offset="0.927" stop-color="#F2F2F2"/>
<stop offset="1" stop-color="#E5E5E5"/>
</linearGradient>
</defs>
</svg>
