<svg width="426" height="426" viewBox="0 0 426 426" fill="none" xmlns="http://www.w3.org/2000/svg">
<path d="M102.871 352.907H322.016C357.463 322.204 379.899 276.88 379.899 226.302C379.899 133.82 304.928 58.8479 212.446 58.8479C119.964 58.8479 44.9878 133.82 44.9878 226.302C44.9878 276.88 67.4258 322.204 102.871 352.907Z" fill="#9ACDCD"/>
<path d="M62.7036 95.4739H77.8536" stroke="white" stroke-width="1.5924" stroke-miterlimit="10" stroke-linecap="round" stroke-linejoin="round"/>
<path d="M70.2788 103.048V87.8989" stroke="white" stroke-width="1.5924" stroke-miterlimit="10" stroke-linecap="round" stroke-linejoin="round"/>
<path d="M64.9214 90.1179L75.6344 100.829" stroke="white" stroke-width="1.5924" stroke-miterlimit="10" stroke-linecap="round" stroke-linejoin="round"/>
<path d="M64.9214 100.829L75.6344 90.1179" stroke="white" stroke-width="1.5924" stroke-miterlimit="10" stroke-linecap="round" stroke-linejoin="round"/>
<path d="M365.583 319.603H380.731" stroke="white" stroke-width="1.5924" stroke-miterlimit="10" stroke-linecap="round" stroke-linejoin="round"/>
<path d="M373.156 327.177V312.028" stroke="white" stroke-width="1.5924" stroke-miterlimit="10" stroke-linecap="round" stroke-linejoin="round"/>
<path d="M367.803 314.247L378.514 324.958" stroke="white" stroke-width="1.5924" stroke-miterlimit="10" stroke-linecap="round" stroke-linejoin="round"/>
<path d="M367.803 324.958L378.514 314.247" stroke="white" stroke-width="1.5924" stroke-miterlimit="10" stroke-linecap="round" stroke-linejoin="round"/>
<path d="M285.32 58.826H297.217" stroke="white" stroke-width="1.5924" stroke-miterlimit="10" stroke-linecap="round" stroke-linejoin="round"/>
<path d="M291.27 64.774V52.875" stroke="white" stroke-width="1.5924" stroke-miterlimit="10" stroke-linecap="round" stroke-linejoin="round"/>
<path d="M287.063 54.619L295.475 63.032" stroke="white" stroke-width="1.5924" stroke-miterlimit="10" stroke-linecap="round" stroke-linejoin="round"/>
<path d="M287.063 63.032L295.475 54.619" stroke="white" stroke-width="1.5924" stroke-miterlimit="10" stroke-linecap="round" stroke-linejoin="round"/>
<path d="M45.5547 285.829H57.4507" stroke="white" stroke-width="1.5924" stroke-miterlimit="10" stroke-linecap="round" stroke-linejoin="round"/>
<path d="M51.5015 291.778V279.88" stroke="white" stroke-width="1.5924" stroke-miterlimit="10" stroke-linecap="round" stroke-linejoin="round"/>
<path d="M47.2959 281.622L55.7089 290.036" stroke="white" stroke-width="1.5924" stroke-miterlimit="10" stroke-linecap="round" stroke-linejoin="round"/>
<path d="M47.2969 290.036L55.7089 281.622" stroke="white" stroke-width="1.5924" stroke-miterlimit="10" stroke-linecap="round" stroke-linejoin="round"/>
<path d="M349.049 168.643H360.948" stroke="white" stroke-width="1.5924" stroke-miterlimit="10" stroke-linecap="round" stroke-linejoin="round"/>
<path d="M354.998 174.592V162.693" stroke="white" stroke-width="1.5924" stroke-miterlimit="10" stroke-linecap="round" stroke-linejoin="round"/>
<path d="M350.79 164.438L359.204 172.85" stroke="white" stroke-width="1.5924" stroke-miterlimit="10" stroke-linecap="round" stroke-linejoin="round"/>
<path d="M350.79 172.85L359.204 164.438" stroke="white" stroke-width="1.5924" stroke-miterlimit="10" stroke-linecap="round" stroke-linejoin="round"/>
<path d="M182.678 42.9559H204.115" stroke="white" stroke-width="1.5924" stroke-miterlimit="10" stroke-linecap="round" stroke-linejoin="round"/>
<path d="M190.936 36.908H212.004" stroke="white" stroke-width="1.5924" stroke-miterlimit="10" stroke-linecap="round" stroke-linejoin="round"/>
<path d="M60.9707 320.022H82.4077" stroke="white" stroke-width="1.5924" stroke-miterlimit="10" stroke-linecap="round" stroke-linejoin="round"/>
<path d="M69.2266 313.974H90.2986" stroke="white" stroke-width="1.5924" stroke-miterlimit="10" stroke-linecap="round" stroke-linejoin="round"/>
<path d="M356.81 129.531H378.248" stroke="white" stroke-width="1.5924" stroke-miterlimit="10" stroke-linecap="round" stroke-linejoin="round"/>
<path d="M365.067 123.483H386.136" stroke="white" stroke-width="1.5924" stroke-miterlimit="10" stroke-linecap="round" stroke-linejoin="round"/>
<path d="M377.365 278.798H398.803" stroke="white" stroke-width="1.5924" stroke-miterlimit="10" stroke-linecap="round" stroke-linejoin="round"/>
<path d="M385.623 272.751H406.693" stroke="white" stroke-width="1.5924" stroke-miterlimit="10" stroke-linecap="round" stroke-linejoin="round"/>
<path d="M109.613 87.8989H131.05" stroke="white" stroke-width="1.5924" stroke-miterlimit="10" stroke-linecap="round" stroke-linejoin="round"/>
<path d="M117.871 81.8529H138.941" stroke="white" stroke-width="1.5924" stroke-miterlimit="10" stroke-linecap="round" stroke-linejoin="round"/>
<path d="M296.727 116.313H318.164" stroke="white" stroke-width="1.5924" stroke-miterlimit="10" stroke-linecap="round" stroke-linejoin="round"/>
<path d="M304.983 110.266H326.054" stroke="white" stroke-width="1.5924" stroke-miterlimit="10" stroke-linecap="round" stroke-linejoin="round"/>
<path d="M63.1865 154.916H84.6265" stroke="white" stroke-width="1.5924" stroke-miterlimit="10" stroke-linecap="round" stroke-linejoin="round"/>
<path d="M71.4443 148.869H92.5173" stroke="white" stroke-width="1.5924" stroke-miterlimit="10" stroke-linecap="round" stroke-linejoin="round"/>
<path d="M71.7378 352.907H356.244" stroke="#072F49" stroke-width="1.8588" stroke-miterlimit="10" stroke-linecap="round" stroke-linejoin="round"/>
<path d="M124.277 358.706H230.446" stroke="#072F49" stroke-width="1.8588" stroke-miterlimit="10" stroke-linecap="round" stroke-linejoin="round"/>
<path d="M238.57 358.706H267.787" stroke="#072F49" stroke-width="1.8588" stroke-miterlimit="10" stroke-linecap="round" stroke-linejoin="round"/>
<path d="M273.438 358.706H297.201" stroke="#072F49" stroke-width="1.8588" stroke-miterlimit="10" stroke-linecap="round" stroke-linejoin="round"/>
<path d="M166.975 366.833H285.32" stroke="#072F49" stroke-width="1.8588" stroke-miterlimit="10" stroke-linecap="round" stroke-linejoin="round"/>
<path d="M139.629 258.695V241.711H176.682V258.695H186.296V240.574C186.296 235.9 182.492 232.097 177.817 232.097H138.495C133.82 232.097 130.016 235.9 130.016 240.574V258.695H139.629Z" fill="#E74645"/>
<path d="M222.117 347.908C222.117 350.668 219.879 352.907 217.117 352.907H99.1919C96.4309 352.907 94.1919 350.668 94.1919 347.908V261.002C94.1919 258.24 96.4309 256.003 99.1919 256.003H217.117C219.879 256.003 222.117 258.24 222.117 261.002V347.908Z" fill="#00B1C3"/>
<path d="M129.221 278.361C130.127 284.332 132.289 289.949 136.082 294.69C140.863 300.67 147.139 305.232 154.162 308.247C167.435 313.941 182.428 314.347 196.553 312.265C203.957 311.174 211.451 309.255 218.287 306.048V262.691C218.287 260.484 216.498 258.695 214.29 258.695H130.811C128.781 265.111 128.267 272.082 129.221 278.361Z" fill="#A1FFE9"/>
<path d="M215.018 320.767C207.525 323.356 199.73 324.982 191.859 325.895C183.412 326.875 174.73 327.306 166.25 326.493C147.977 324.739 129.163 317.639 117.551 302.782C108.299 290.945 105.881 275.397 108.944 260.853C109.288 259.223 109.706 257.603 110.195 256.003H99.1919C96.4309 256.003 94.1919 258.24 94.1919 261.002V347.908C94.1919 350.668 96.4309 352.907 99.1919 352.907H217.117C219.879 352.907 222.117 350.668 222.117 347.908V317.929C219.797 318.985 217.428 319.935 215.018 320.767Z" fill="#184655"/>
<path d="M191.789 304.455C191.789 323.03 176.73 338.089 158.154 338.089C139.58 338.089 124.521 323.03 124.521 304.455C124.521 285.88 139.58 270.82 158.154 270.82C176.73 270.82 191.789 285.88 191.789 304.455Z" fill="#9D9D9C"/>
<path d="M187.553 304.455C187.553 320.691 174.392 333.851 158.155 333.851C141.919 333.851 128.759 320.691 128.759 304.455C128.759 288.219 141.919 275.057 158.155 275.057C174.392 275.058 187.553 288.219 187.553 304.455Z" fill="#26505D"/>
<path d="M155.085 280.041C151.574 283.93 149.234 288.782 149.375 294.057C149.614 303.106 157.697 310.407 166.741 310.301C174.56 310.208 180.721 305.172 182.525 297.644C182.613 297.279 182.691 296.913 182.765 296.546C179.567 286.735 170.351 279.642 159.473 279.642C157.975 279.642 156.512 279.783 155.085 280.041Z" fill="#0CA3AC" fill-opacity="0.46"/>
<path d="M174.857 296.325H162.832V282.076H153.479V296.325H141.453V305.68H153.479V326.834H162.832V305.68H174.857V296.325Z" fill="white"/>
<path d="M163.814 315.311C152.101 313.796 141.771 303.784 142.347 291.54C142.593 286.361 144.306 281.502 147.025 277.243C136.309 281.632 128.757 292.158 128.757 304.455C128.757 320.691 141.917 333.851 158.153 333.851C174.39 333.851 187.551 320.691 187.551 304.455C187.551 303.926 187.535 303.4 187.508 302.88C183.263 311.702 173.555 316.571 163.814 315.311Z" fill="#184655" fill-opacity="0.21"/>
<path d="M180.395 263.342C181.608 263.12 182.819 262.951 184.031 262.798C185.243 262.655 186.454 262.51 187.667 262.412C190.093 262.167 192.517 262.028 194.94 261.919C197.365 261.818 199.788 261.751 202.213 261.746C204.637 261.731 207.061 261.763 209.484 261.844L209.629 261.85L209.66 261.855C210.168 261.944 210.508 262.04 210.9 262.17C211.285 262.288 211.644 262.454 212.005 262.613C212.358 262.793 212.712 262.971 213.045 263.184C213.374 263.408 213.716 263.605 214.007 263.879C214.31 264.137 214.62 264.383 214.878 264.688C215.145 264.982 215.419 265.263 215.628 265.601C215.84 265.934 216.096 266.235 216.248 266.597C216.417 266.948 216.596 267.293 216.727 267.651L217.056 268.745C217.163 269.107 217.187 269.484 217.251 269.848C217.315 270.214 217.354 270.579 217.335 270.946L217.323 272.033C217.315 272.391 217.245 272.746 217.196 273.098L217.023 274.142C216.84 274.826 216.635 275.496 216.423 276.154C216.389 275.453 216.363 274.765 216.359 274.089L216.24 273.081C216.189 272.75 216.193 272.418 216.119 272.095L215.902 271.137C215.849 270.815 215.732 270.515 215.625 270.215C215.512 269.92 215.442 269.61 215.299 269.334L214.877 268.515C214.726 268.251 214.522 268.023 214.364 267.774C214.215 267.513 213.978 267.324 213.791 267.1C213.608 266.871 213.365 266.701 213.148 266.509C212.941 266.308 212.685 266.16 212.447 265.998C212.218 265.824 211.939 265.716 211.691 265.571C211.435 265.438 211.161 265.333 210.894 265.226C210.618 265.134 210.343 265.042 210.066 264.976C209.806 264.902 209.476 264.847 209.308 264.829L209.482 264.841C207.058 264.922 204.634 264.951 202.211 264.939C199.785 264.935 197.362 264.866 194.938 264.766C192.514 264.657 190.09 264.517 187.665 264.273C186.452 264.175 185.241 264.03 184.029 263.886C182.818 263.73 181.607 263.564 180.395 263.342Z" fill="white"/>
<path d="M275.376 270.548H238.676V298.144H275.376V270.548Z" fill="#EFBFA5"/>
<path d="M248.941 291.705C254.843 291.447 260.589 288.972 265.125 285.214C268.808 282.163 271.778 278.537 274.008 274.307C274.447 273.476 274.929 272.534 275.375 271.529V270.549H238.675V291.197C242.09 291.651 245.544 291.853 248.941 291.705Z" fill="black" fill-opacity="0.28"/>
<path d="M255.664 153.972C230.741 154.502 207.103 174.189 210.834 207.651C213.088 227.871 214.849 230.872 220.871 254.087C225.039 270.15 247.214 278.625 255.664 279.176C264.117 278.625 286.293 270.151 290.459 254.087C296.482 230.872 298.242 227.871 300.5 207.651C304.228 174.189 280.59 154.502 255.664 153.972Z" fill="#EFBFA5"/>
<path d="M297.56 216.667L294.943 236.7C305.222 241.228 306.832 217.652 306.832 217.652C304.453 211.773 297.56 216.667 297.56 216.667Z" fill="#EFBFA5"/>
<path d="M204.148 217.652C204.148 217.652 205.755 241.228 216.035 236.7L213.42 216.667C213.42 216.667 206.525 211.773 204.148 217.652Z" fill="#EFBFA5"/>
<path d="M275.376 290.138L324.081 303.789C324.081 303.789 340.701 306.53 344.939 322.611L352.209 351.761H257.514H256.682H161.985L169.255 322.611C173.496 306.53 190.114 303.789 190.114 303.789L238.677 290.138H275.376Z" fill="#EFBFA5"/>
<path d="M275.376 290.138L324.081 303.789C324.081 303.789 340.701 306.53 344.939 322.611L352.209 351.761H257.514H256.682H161.985L169.255 322.611C173.496 306.53 190.114 303.789 190.114 303.789L238.677 290.138L257.099 328.292L275.376 290.138Z" fill="#03B4BD"/>
<path d="M231.465 351.76H161.985L169.255 322.609C173.496 306.531 190.114 303.789 190.114 303.789L233.003 291.753L231.465 351.76Z" fill="white" stroke="#B2B2B2" stroke-width="2.1153" stroke-miterlimit="10"/>
<path d="M283.81 292.503L324.081 303.789C324.081 303.789 340.701 306.53 344.939 322.611L352.209 351.761H282.799L283.81 292.503Z" fill="white" stroke="#B2B2B2" stroke-width="2.1153" stroke-miterlimit="10"/>
<path d="M219.426 319.162C219.426 319.162 235.471 307.472 250.665 315.41C250.665 315.41 241.549 292.767 219.426 319.162Z" fill="#B2B2B2"/>
<path d="M251.994 317.711C251.994 317.711 244.537 298.92 219.426 319.162L228.397 293.028L238.835 290.137L251.994 317.711Z" fill="#0CA3AC"/>
<path d="M294.792 319.162C294.792 319.162 275.376 305.666 262.91 316.16C262.91 316.16 272.668 292.767 294.792 319.162Z" fill="#B2B2B2"/>
<path d="M262.91 316.16C262.91 316.16 269.68 298.92 294.792 319.162L285.852 293.074L275.384 290.138L262.91 316.16Z" fill="#0CA3AC"/>
<path d="M228.816 171.575C228.816 171.575 223.527 191.465 260.289 201.942C260.289 201.942 288.623 207.523 300.266 200.154C300.266 200.154 289.416 154.903 228.816 171.575Z" fill="black" fill-opacity="0.24"/>
<path d="M306.832 175.279C306.341 185.633 306.887 197.903 301.592 215.904C301 217.908 298.748 223.761 298.748 223.761L296.863 223.822V210.798C295.709 192.244 294.497 192.111 294.497 192.111C257.736 202.265 235.074 183.572 235.074 183.572C232.836 181.537 231.199 179.505 230.008 177.516C226.928 179.951 223.979 183.343 221.498 188.065C221.498 188.065 215.807 197.434 216.461 213.317V226.341L214.48 225.559L211.731 215.276C208.186 194.881 210.261 169.649 210.261 169.649C210.261 169.649 213.954 147.554 240.748 142.628C240.748 142.628 288.183 138.223 300.888 153.972C300.888 153.972 307.438 162.524 306.832 175.279Z" fill="#491809"/>
<path d="M226.834 159.124C226.834 159.124 226.592 160.496 226.567 162.894C226.537 165.28 226.758 168.72 227.929 172.55C228.546 174.452 229.435 176.42 230.624 178.33C231.8 180.253 233.406 182.022 235.249 183.619C236.142 184.455 237.207 185.122 238.229 185.854C238.779 186.168 239.333 186.484 239.887 186.802L240.721 187.281L241.601 187.694C242.188 187.97 242.778 188.247 243.37 188.525L245.224 189.211C246.443 189.717 247.757 190.005 249.031 190.388C250.306 190.776 251.638 190.99 252.935 191.301C254.243 191.575 255.578 191.72 256.886 191.935C259.523 192.225 262.13 192.559 264.681 192.623C267.223 192.786 269.697 192.758 272.044 192.795C274.391 192.769 276.614 192.673 278.673 192.647C280.726 192.518 282.612 192.417 284.29 192.338C285.966 192.26 287.421 192.103 288.627 192.028C291.036 191.855 292.423 191.785 292.423 191.785C292.423 191.785 291.083 192.119 288.72 192.654C287.534 192.9 286.105 193.282 284.439 193.544C282.775 193.829 280.896 194.157 278.836 194.463C276.768 194.691 274.525 194.998 272.139 195.163C269.75 195.287 267.227 195.504 264.602 195.417C263.291 195.406 261.955 195.423 260.604 195.308C259.254 195.209 257.881 195.184 256.508 194.977C255.135 194.771 253.742 194.637 252.358 194.367C250.98 194.058 249.578 193.853 248.211 193.452C246.85 193.027 245.465 192.698 244.147 192.136C243.482 191.879 242.819 191.622 242.158 191.366C241.515 191.055 240.877 190.745 240.238 190.436L239.287 189.971C238.979 189.798 238.678 189.612 238.378 189.427C237.781 189.052 237.188 188.679 236.598 188.308C235.487 187.453 234.352 186.664 233.387 185.692C231.382 183.851 229.746 181.728 228.586 179.524C227.393 177.338 226.637 175.101 226.175 173.012C225.721 170.916 225.594 168.962 225.588 167.247C225.568 165.53 225.764 164.045 225.942 162.84C226.116 161.631 226.378 160.705 226.542 160.077C226.715 159.45 226.834 159.124 226.834 159.124Z" fill="#350F00"/>
<path opacity="0.5" d="M231.283 163.198C231.283 163.198 236.924 182.603 260.289 187.948C260.289 187.948 248.904 182.332 245.785 172.765C245.785 172.765 251.379 179.038 260.289 179.434C260.289 179.434 245.24 167.753 244.846 161.02C244.846 161.02 237.948 167.157 243.377 174.484C243.377 174.484 238.906 173.692 231.283 163.198Z" fill="white"/>
<path opacity="0.5" d="M270.096 150.406C270.096 150.406 299.395 149.877 300.889 178.719C300.889 178.719 299.404 172.103 292.424 169.324C292.424 169.324 302.381 180.932 300.266 200.153C300.266 200.153 304.008 186.393 278.852 166.017C278.852 166.017 287.508 163.371 294.944 167.076C294.944 167.076 289.678 154.109 270.096 150.406Z" fill="white"/>
<path d="M235.637 204.112C226.846 204.038 218.012 203.662 218.627 217.103C218.987 225.001 224.584 231.942 233.344 232.647C242.1 233.351 249.153 227.561 251.883 219.719C253.516 212.73 257.379 204.29 235.637 204.112ZM249.65 219.535C247.292 226.305 241.209 231.301 233.644 230.693C226.081 230.086 221.252 224.094 220.939 217.275C220.411 205.673 228.037 205.997 235.627 206.062C254.395 206.216 251.059 213.504 249.65 219.535Z" fill="black"/>
<path d="M261.594 220.555C264.474 228.341 271.637 233.993 280.38 233.119C289.127 232.247 294.585 225.2 294.794 217.296C295.148 203.843 286.322 204.395 277.537 204.634C255.803 205.233 259.829 213.598 261.594 220.555ZM277.584 206.583C285.17 206.374 292.791 205.901 292.482 217.514C292.3 224.335 287.589 230.421 280.043 231.172C272.49 231.926 266.311 227.05 263.824 220.327C262.3 214.32 258.822 207.1 277.584 206.583Z" fill="black"/>
<path d="M252.805 213.26C252.805 213.26 257.483 210.193 261.897 213.373C261.897 213.373 260.851 210.355 262.801 208.333C262.801 208.333 258.012 205.987 251.852 208.199C251.852 208.199 253.096 211.2 252.805 213.26Z" fill="black"/>
<path d="M223.25 205.727L210.834 207.651L211.732 215.276L219.899 219.595C219.899 219.595 218.488 211.247 223.25 205.727Z" fill="black"/>
<path d="M291.18 206.778L303.099 210.311L301.233 217.013L294.191 220.726C294.191 220.726 295.807 212.413 291.18 206.778Z" fill="black"/>
<path opacity="0.2" d="M277.584 206.583C285.17 206.374 292.791 205.901 292.482 217.514C292.3 224.335 287.589 230.421 280.043 231.172C272.49 231.926 266.311 227.05 263.824 220.327C262.3 214.32 258.822 207.1 277.584 206.583Z" fill="white"/>
<path opacity="0.2" d="M249.651 219.462C247.295 226.233 241.209 231.229 233.644 230.621C226.084 230.014 221.253 224.02 220.943 217.203C220.411 205.6 228.037 205.924 235.627 205.99C254.396 206.142 251.059 213.431 249.651 219.462Z" fill="white"/>
<path d="M238.719 280.248H235.649C234.709 280.221 228.022 280.275 221.465 286.49C212.666 294.829 205.379 318.254 206.899 343.147L212.151 343.146C210.409 316.183 219.694 295.502 224.928 290.446C230.176 285.374 235.28 285.491 235.465 285.495H238.719V280.248Z" fill="#202332"/>
<path d="M294.465 285.144C290.979 281.381 285.016 279.737 276.746 280.249H275.234V285.5H276.831L276.996 285.496C283.504 285.077 288.195 286.17 290.555 288.65C292.559 290.757 292.297 293.281 292.284 293.387L297.488 294.086C297.517 293.885 298.139 289.108 294.465 285.144Z" fill="#202332"/>
<path d="M314.026 320.511C314.666 320.511 315.198 321.014 315.227 321.659C315.242 321.974 315.575 329.529 314.329 339.488C314.302 339.812 314.013 342.523 312.599 345.258C310.573 349.183 307.244 351.256 302.972 351.256C302.31 351.256 301.771 350.717 301.771 350.054C301.771 349.389 302.31 348.85 302.972 348.85C311.009 348.85 311.903 339.649 311.935 339.256C311.937 339.242 311.94 339.226 311.941 339.208C313.164 329.444 312.828 321.845 312.824 321.768C312.793 321.106 313.304 320.543 313.971 320.512C313.988 320.511 314.008 320.511 314.026 320.511Z" fill="#C6C6C6"/>
<path d="M302.973 351.257C307.245 351.257 310.574 349.184 312.6 345.259C314.014 342.524 314.303 339.813 314.33 339.489C315.575 329.53 315.242 321.975 315.228 321.66C315.199 321.014 314.666 320.512 314.027 320.512C314.009 320.512 313.989 320.512 313.971 320.515C313.305 320.545 312.793 321.109 312.824 321.771C312.824 321.786 312.838 322.09 312.849 322.634C312.876 322.63 312.902 322.623 312.929 322.622C312.949 322.621 312.963 322.621 312.98 322.621C313.544 322.621 314.013 323.064 314.04 323.633C314.053 323.913 314.346 330.58 313.25 339.37C313.221 339.657 312.969 342.05 311.721 344.464C309.931 347.929 306.994 349.759 303.226 349.759C302.784 349.759 302.407 349.488 302.247 349.105C301.96 349.326 301.772 349.668 301.772 350.056C301.771 350.718 302.31 351.257 302.973 351.257Z" fill="#C6C6C6"/>
<path d="M276.691 320.511C276.052 320.511 275.519 321.014 275.49 321.659C275.475 321.974 275.142 329.529 276.386 339.488C276.417 339.812 276.702 342.523 278.116 345.258C280.147 349.183 283.473 351.256 287.743 351.256C288.405 351.256 288.944 350.717 288.944 350.054C288.944 349.389 288.405 348.85 287.743 348.85C279.708 348.85 278.814 339.649 278.78 339.256C278.78 339.242 278.778 339.226 278.776 339.208C277.553 329.444 277.887 321.845 277.891 321.768C277.924 321.106 277.411 320.543 276.745 320.512C276.728 320.511 276.709 320.511 276.691 320.511Z" fill="#C6C6C6"/>
<path d="M287.744 351.257C283.473 351.257 280.148 349.184 278.117 345.259C276.703 342.524 276.418 339.813 276.387 339.489C275.143 329.53 275.476 321.975 275.491 321.66C275.52 321.014 276.054 320.512 276.692 320.512C276.709 320.512 276.729 320.512 276.747 320.515C277.413 320.545 277.927 321.109 277.893 321.771C277.893 321.786 277.881 322.09 277.87 322.634C277.843 322.63 277.817 322.623 277.788 322.622C277.772 322.621 277.755 322.621 277.739 322.621C277.175 322.621 276.704 323.064 276.679 323.633C276.664 323.913 276.372 330.58 277.472 339.37C277.499 339.657 277.749 342.05 278.997 344.464C280.786 347.929 283.726 349.759 287.493 349.759C287.934 349.759 288.311 349.488 288.472 349.105C288.759 349.326 288.947 349.668 288.947 350.056C288.945 350.718 288.406 351.257 287.744 351.257Z" fill="#C6C6C6"/>
<path d="M294.514 292.207C294.588 292.207 294.653 292.209 294.7 292.209C294.75 292.209 294.799 292.209 294.853 292.209C299.716 292.209 303.886 293.736 307.251 296.752C316.974 305.464 316.441 323.811 316.415 324.587C316.372 325.753 315.259 326.668 313.935 326.633C312.607 326.598 311.565 325.622 311.603 324.455C311.613 324.223 312.08 307.106 303.807 299.703C301.314 297.47 298.336 296.402 294.693 296.432C294.62 296.432 294.597 296.434 294.529 296.428C294.229 296.423 290.711 296.402 287.117 299.429C283.46 302.508 279.102 309.361 279.102 324.522C279.102 325.688 278.025 326.632 276.697 326.632C275.367 326.632 274.289 325.688 274.289 324.522C274.289 311.029 277.543 301.512 283.955 296.24C288.533 292.475 293.265 292.209 294.514 292.207Z" fill="#202332"/>
<path d="M276.697 326.633C277.987 326.633 279.037 325.742 279.095 324.625C277.939 324.623 277.003 323.8 277.003 322.785C277.003 311.029 279.836 302.739 285.421 298.143C289.412 294.865 293.532 294.629 294.623 294.629C294.688 294.629 294.743 294.63 294.784 294.633C294.828 294.633 294.87 294.632 294.915 294.632C299.153 294.632 302.788 295.964 305.72 298.589C314.187 306.179 313.726 322.164 313.702 322.84C313.667 323.837 312.733 324.622 311.607 324.622C311.665 325.712 312.671 326.597 313.934 326.632C315.258 326.667 316.372 325.752 316.414 324.586C316.439 323.81 316.973 305.463 307.25 296.751C303.885 293.735 299.715 292.208 294.852 292.208C294.797 292.208 294.749 292.208 294.699 292.208C294.651 292.208 294.587 292.206 294.513 292.206C293.264 292.208 288.533 292.474 283.954 296.239C277.542 301.511 274.288 311.028 274.288 324.521C274.289 325.689 275.367 326.633 276.697 326.633Z" fill="#B2B2B2"/>
<path d="M298.24 349.922C298.24 348.777 299.165 347.85 300.31 347.85L304.189 348.186C305.39 348.485 305.355 349.117 305.39 349.922C305.39 350.791 305.39 351.426 304.085 351.727L300.31 351.995C299.165 351.994 298.24 351.066 298.24 349.922Z" fill="#202332"/>
<path d="M301.13 349.922C300.213 349.927 299.612 350.19 299.129 350.884C299.502 351.251 300.014 351.477 300.578 351.477L302.871 351.312C302.961 350.21 302.287 349.916 301.13 349.922Z" fill="white"/>
<path d="M301.965 348.808C303.66 349.049 304.327 350.216 304.323 351.663C305.388 351.343 305.39 350.733 305.39 349.922C305.355 349.116 305.39 348.484 304.189 348.186L300.31 347.85C299.3 347.85 298.461 348.572 298.275 349.528C299.273 348.767 300.553 348.604 301.965 348.808Z" fill="#878787"/>
<path d="M293.631 349.922C293.631 348.777 292.701 347.85 291.558 347.85L287.684 348.186C286.479 348.485 286.514 349.117 286.479 349.922C286.479 350.791 286.479 351.426 287.782 351.727L291.558 351.995C292.701 351.994 293.631 351.066 293.631 349.922Z" fill="#202332"/>
<path d="M290.738 349.922C291.654 349.927 292.258 350.19 292.736 350.884C292.363 351.251 291.855 351.477 291.292 351.477L288.994 351.312C288.908 350.21 289.579 349.916 290.738 349.922Z" fill="white"/>
<path d="M289.902 348.808C288.205 349.049 287.541 350.216 287.545 351.663C286.481 351.343 286.479 350.733 286.479 349.922C286.514 349.116 286.479 348.484 287.684 348.186L291.558 347.85C292.565 347.85 293.407 348.572 293.591 349.528C292.594 348.767 291.318 348.604 289.902 348.808Z" fill="#878787"/>
<path d="M199.143 340.692C199.143 334.452 204.202 329.391 210.444 329.391C216.684 329.391 221.747 334.452 221.747 340.692C221.747 346.934 216.684 351.994 210.444 351.994C204.201 351.994 199.143 346.935 199.143 340.692Z" fill="#202332"/>
<path d="M202.246 340.692C202.246 336.166 205.916 332.496 210.443 332.496C214.97 332.496 218.641 336.166 218.641 340.692C218.641 345.219 214.97 348.888 210.443 348.888C205.916 348.889 202.246 345.22 202.246 340.692Z" fill="#B2B2B2"/>
<path d="M203.553 340.692C203.553 336.887 206.637 333.8 210.444 333.8C214.251 333.8 217.337 336.887 217.337 340.692C217.337 344.499 214.251 347.586 210.444 347.586C206.637 347.586 203.553 344.499 203.553 340.692Z" fill="#9D9D9C"/>
</svg>
