<svg width="9" height="12" viewBox="0 0 9 12" fill="none" xmlns="http://www.w3.org/2000/svg">
<path d="M6.80114 3.36364C6.74148 2.85985 6.49953 2.46875 6.07528 2.19034C5.65104 1.91193 5.13068 1.77273 4.5142 1.77273C4.06345 1.77273 3.66903 1.84564 3.33097 1.99148C2.99621 2.13731 2.73438 2.33783 2.54545 2.59304C2.35985 2.84825 2.26705 3.13826 2.26705 3.46307C2.26705 3.73485 2.33168 3.96851 2.46094 4.16406C2.59351 4.3563 2.76255 4.51705 2.96804 4.64631C3.17353 4.77225 3.38897 4.87666 3.61435 4.95952C3.83973 5.03906 4.04688 5.10369 4.2358 5.15341L5.26989 5.43182C5.53504 5.50142 5.83002 5.59754 6.15483 5.72017C6.48295 5.8428 6.79616 6.01018 7.09446 6.2223C7.39607 6.43111 7.64465 6.69957 7.8402 7.0277C8.03575 7.35582 8.13352 7.75852 8.13352 8.2358C8.13352 8.78598 7.98935 9.28314 7.70099 9.72727C7.41596 10.1714 6.99834 10.5244 6.44815 10.7862C5.90128 11.0481 5.23674 11.179 4.45455 11.179C3.72538 11.179 3.09399 11.0613 2.56037 10.826C2.03007 10.5907 1.61245 10.2625 1.30753 9.84162C1.00592 9.42069 0.835227 8.93182 0.795455 8.375H2.06818C2.10133 8.75947 2.23059 9.07765 2.45597 9.32955C2.68466 9.57812 2.97301 9.76373 3.32102 9.88636C3.67235 10.0057 4.05019 10.0653 4.45455 10.0653C4.92519 10.0653 5.34777 9.98911 5.7223 9.83665C6.09683 9.68087 6.39347 9.46544 6.61222 9.19034C6.83097 8.91193 6.94034 8.58712 6.94034 8.21591C6.94034 7.87784 6.84588 7.60275 6.65696 7.39062C6.46804 7.1785 6.21946 7.00616 5.91122 6.87358C5.60298 6.741 5.26989 6.625 4.91193 6.52557L3.65909 6.16761C2.86364 5.93892 2.2339 5.61245 1.76989 5.18821C1.30587 4.76397 1.07386 4.20881 1.07386 3.52273C1.07386 2.95265 1.22798 2.45549 1.53622 2.03125C1.84777 1.60369 2.26539 1.27225 2.78906 1.03693C3.31605 0.798295 3.90436 0.678977 4.55398 0.678977C5.21023 0.678977 5.79356 0.796638 6.30398 1.03196C6.81439 1.26397 7.21875 1.58215 7.51705 1.98651C7.81866 2.39086 7.97775 2.8499 7.99432 3.36364H6.80114Z" fill="white"/>
</svg>
