<svg width="76" height="109" viewBox="0 0 76 109" fill="none" xmlns="http://www.w3.org/2000/svg">
<path d="M61.9545 28.4545C61.3409 23.2727 58.8523 19.25 54.4886 16.3864C50.125 13.5227 44.7727 12.0909 38.4318 12.0909C33.7955 12.0909 29.7386 12.8409 26.2614 14.3409C22.8182 15.8409 20.125 17.9034 18.1818 20.5284C16.2727 23.1534 15.3182 26.1364 15.3182 29.4773C15.3182 32.2727 15.983 34.6761 17.3125 36.6875C18.6761 38.6648 20.4148 40.3182 22.5284 41.6477C24.642 42.9432 26.858 44.017 29.1761 44.8693C31.4943 45.6875 33.625 46.3523 35.5682 46.8636L46.2045 49.7273C48.9318 50.4432 51.9659 51.4318 55.3068 52.6932C58.6818 53.9545 61.9034 55.6761 64.9716 57.858C68.0739 60.0057 70.6307 62.767 72.6421 66.142C74.6534 69.517 75.6591 73.6591 75.6591 78.5682C75.6591 84.2273 74.1761 89.3409 71.2102 93.9091C68.2784 98.4773 63.983 102.108 58.3239 104.801C52.6989 107.494 45.8636 108.841 37.8182 108.841C30.3182 108.841 23.8239 107.631 18.3352 105.21C12.8807 102.79 8.58523 99.4148 5.44886 95.0852C2.34659 90.7557 0.590909 85.7273 0.181818 80H13.2727C13.6136 83.9545 14.9432 87.2273 17.2614 89.8182C19.6136 92.375 22.5795 94.2841 26.1591 95.5455C29.7727 96.7727 33.6591 97.3864 37.8182 97.3864C42.6591 97.3864 47.0057 96.6023 50.858 95.0341C54.7102 93.4318 57.7614 91.2159 60.0114 88.3864C62.2614 85.5227 63.3864 82.1818 63.3864 78.3636C63.3864 74.8864 62.4148 72.0568 60.4716 69.875C58.5284 67.6932 55.9716 65.9205 52.8011 64.5568C49.6307 63.1932 46.2045 62 42.5227 60.9773L29.6364 57.2955C21.4545 54.9432 14.9773 51.5852 10.2045 47.2216C5.43182 42.858 3.04545 37.1477 3.04545 30.0909C3.04545 24.2273 4.63068 19.1136 7.80114 14.75C11.0057 10.3523 15.3011 6.94318 20.6875 4.52272C26.108 2.06818 32.1591 0.840905 38.8409 0.840905C45.5909 0.840905 51.5909 2.05113 56.8409 4.47159C62.0909 6.85795 66.25 10.1307 69.3182 14.2898C72.4205 18.4489 74.0568 23.1705 74.2273 28.4545H61.9545Z" fill="white"/>
</svg>
