<svg width="65" height="12" viewBox="0 0 65 12" fill="none" xmlns="http://www.w3.org/2000/svg">
    <path d="M6.80114 3.36364C6.74148 2.85985 6.49953 2.46875 6.07528 2.19034C5.65104 1.91193 5.13068 1.77273 4.5142 1.77273C4.06345 1.77273 3.66903 1.84564 3.33097 1.99148C2.99621 2.13731 2.73438 2.33783 2.54545 2.59304C2.35985 2.84825 2.26705 3.13826 2.26705 3.46307C2.26705 3.73485 2.33168 3.96851 2.46094 4.16406C2.59351 4.3563 2.76255 4.51705 2.96804 4.64631C3.17353 4.77225 3.38897 4.87666 3.61435 4.95952C3.83973 5.03906 4.04688 5.10369 4.2358 5.15341L5.26989 5.43182C5.53504 5.50142 5.83002 5.59754 6.15483 5.72017C6.48295 5.8428 6.79616 6.01018 7.09446 6.2223C7.39607 6.43111 7.64465 6.69957 7.8402 7.0277C8.03575 7.35582 8.13352 7.75852 8.13352 8.2358C8.13352 8.78598 7.98935 9.28314 7.70099 9.72727C7.41596 10.1714 6.99834 10.5244 6.44815 10.7862C5.90128 11.0481 5.23674 11.179 4.45455 11.179C3.72538 11.179 3.09399 11.0613 2.56037 10.826C2.03007 10.5907 1.61245 10.2625 1.30753 9.84162C1.00592 9.42069 0.835227 8.93182 0.795455 8.375H2.06818C2.10133 8.75947 2.23059 9.07765 2.45597 9.32955C2.68466 9.57812 2.97301 9.76373 3.32102 9.88636C3.67235 10.0057 4.05019 10.0653 4.45455 10.0653C4.92519 10.0653 5.34777 9.98911 5.7223 9.83665C6.09683 9.68087 6.39347 9.46544 6.61222 9.19034C6.83097 8.91193 6.94034 8.58712 6.94034 8.21591C6.94034 7.87784 6.84588 7.60275 6.65696 7.39062C6.46804 7.1785 6.21946 7.00616 5.91122 6.87358C5.60298 6.741 5.26989 6.625 4.91193 6.52557L3.65909 6.16761C2.86364 5.93892 2.2339 5.61245 1.76989 5.18821C1.30587 4.76397 1.07386 4.20881 1.07386 3.52273C1.07386 2.95265 1.22798 2.45549 1.53622 2.03125C1.84777 1.60369 2.26539 1.27225 2.78906 1.03693C3.31605 0.798295 3.90436 0.678977 4.55398 0.678977C5.21023 0.678977 5.79356 0.796638 6.30398 1.03196C6.81439 1.26397 7.21875 1.58215 7.51705 1.98651C7.81866 2.39086 7.97775 2.8499 7.99432 3.36364H6.80114ZM12.2488 11.179C11.7649 11.179 11.3257 11.0878 10.9313 10.9055C10.5369 10.7199 10.2237 10.4531 9.99165 10.1051C9.75965 9.75379 9.64364 9.32955 9.64364 8.83239C9.64364 8.39489 9.72982 8.04025 9.90217 7.76847C10.0745 7.49337 10.3049 7.27794 10.5932 7.12216C10.8816 6.96638 11.1998 6.85038 11.5478 6.77415C11.8991 6.6946 12.2521 6.63163 12.6067 6.58523C13.0707 6.52557 13.4469 6.48082 13.7353 6.45099C14.0269 6.41785 14.2391 6.36316 14.3716 6.28693C14.5075 6.2107 14.5755 6.07812 14.5755 5.8892V5.84943C14.5755 5.3589 14.4412 4.97775 14.1728 4.70597C13.9076 4.43419 13.5049 4.2983 12.9647 4.2983C12.4045 4.2983 11.9654 4.42093 11.6472 4.66619C11.329 4.91146 11.1053 5.1733 10.976 5.4517L9.86239 5.05398C10.0613 4.58996 10.3264 4.22869 10.6578 3.97017C10.9926 3.70833 11.3572 3.52604 11.7516 3.4233C12.1493 3.31723 12.5404 3.2642 12.9249 3.2642C13.1702 3.2642 13.4519 3.29403 13.7701 3.35369C14.0916 3.41004 14.4015 3.5277 14.6998 3.70668C15.0014 3.88565 15.2516 4.15578 15.4505 4.51705C15.6493 4.87831 15.7488 5.36222 15.7488 5.96875V11H14.5755V9.96591H14.5158C14.4363 10.1316 14.3037 10.3089 14.1181 10.4979C13.9325 10.6868 13.6855 10.8475 13.3773 10.9801C13.0691 11.1127 12.6929 11.179 12.2488 11.179ZM12.4277 10.125C12.8917 10.125 13.2828 10.0339 13.601 9.85156C13.9225 9.66927 14.1645 9.43395 14.3269 9.1456C14.4926 8.85724 14.5755 8.55398 14.5755 8.2358V7.16193C14.5257 7.22159 14.4164 7.27628 14.2473 7.32599C14.0816 7.3724 13.8894 7.41383 13.6706 7.45028C13.4552 7.48343 13.2447 7.51326 13.0392 7.53977C12.8371 7.56297 12.673 7.58286 12.5471 7.59943C12.2421 7.6392 11.9571 7.70384 11.6919 7.79332C11.4301 7.8795 11.218 8.01042 11.0556 8.18608C10.8965 8.35843 10.8169 8.59375 10.8169 8.89205C10.8169 9.29972 10.9677 9.60795 11.2694 9.81676C11.5743 10.0223 11.9604 10.125 12.4277 10.125ZM19.0636 6.40625V11H17.8903V3.36364H19.0238V4.55682H19.1232C19.3022 4.16903 19.574 3.85748 19.9386 3.62216C20.3031 3.38352 20.7738 3.2642 21.3505 3.2642C21.8675 3.2642 22.32 3.37027 22.7077 3.58239C23.0955 3.79119 23.3971 4.10938 23.6126 4.53693C23.828 4.96117 23.9357 5.49811 23.9357 6.14773V11H22.7624V6.22727C22.7624 5.62737 22.6067 5.16004 22.2951 4.82528C21.9835 4.48722 21.556 4.31818 21.0124 4.31818C20.6379 4.31818 20.3031 4.39938 20.0082 4.56179C19.7165 4.72419 19.4862 4.96117 19.3171 5.27273C19.1481 5.58428 19.0636 5.96212 19.0636 6.40625ZM29.4007 3.36364V4.35795H25.4434V3.36364H29.4007ZM26.5968 1.53409H27.7701V8.8125C27.7701 9.14394 27.8181 9.39252 27.9142 9.55824C28.0137 9.72064 28.1396 9.83002 28.2921 9.88636C28.4479 9.93939 28.6119 9.96591 28.7843 9.96591C28.9135 9.96591 29.0196 9.95928 29.1025 9.94602C29.1853 9.92945 29.2516 9.91619 29.3013 9.90625L29.54 10.9602C29.4604 10.9901 29.3494 11.0199 29.2069 11.0497C29.0643 11.0829 28.8837 11.0994 28.665 11.0994C28.3335 11.0994 28.0087 11.0282 27.6905 10.8857C27.3757 10.7431 27.1138 10.526 26.905 10.2344C26.6995 9.94271 26.5968 9.57481 26.5968 9.13068V1.53409ZM34.2853 11.1591C33.5495 11.1591 32.9148 10.9967 32.3812 10.6719C31.8509 10.3438 31.4416 9.88636 31.1532 9.29972C30.8682 8.70975 30.7257 8.02367 30.7257 7.24148C30.7257 6.45928 30.8682 5.76989 31.1532 5.1733C31.4416 4.57339 31.8426 4.10606 32.3564 3.77131C32.8734 3.43324 33.4766 3.2642 34.166 3.2642C34.5637 3.2642 34.9565 3.33049 35.3443 3.46307C35.7321 3.59564 36.0851 3.81108 36.4032 4.10938C36.7214 4.40436 36.975 4.79545 37.1639 5.28267C37.3528 5.76989 37.4473 6.36979 37.4473 7.08239V7.57955H31.5609V6.56534H36.2541C36.2541 6.13447 36.1679 5.75 35.9956 5.41193C35.8265 5.07386 35.5846 4.80705 35.2697 4.61151C34.9582 4.41596 34.5903 4.31818 34.166 4.31818C33.6987 4.31818 33.2943 4.43419 32.9529 4.66619C32.6149 4.89489 32.3547 5.19318 32.1724 5.56108C31.9901 5.92898 31.899 6.32339 31.899 6.74432V7.42045C31.899 7.99716 31.9984 8.48603 32.1973 8.88707C32.3994 9.2848 32.6795 9.58807 33.0375 9.79688C33.3954 10.0024 33.8114 10.1051 34.2853 10.1051C34.5936 10.1051 34.872 10.062 35.1206 9.97585C35.3725 9.88636 35.5895 9.75379 35.7718 9.57812C35.9541 9.39915 36.095 9.17708 36.1944 8.91193L37.3279 9.23011C37.2086 9.61458 37.0081 9.95265 36.7264 10.2443C36.4447 10.5327 36.0967 10.758 35.6824 10.9205C35.2681 11.0795 34.8024 11.1591 34.2853 11.1591ZM44.9593 3.36364C44.8997 2.85985 44.6577 2.46875 44.2335 2.19034C43.8092 1.91193 43.2889 1.77273 42.6724 1.77273C42.2217 1.77273 41.8272 1.84564 41.4892 1.99148C41.1544 2.13731 40.8926 2.33783 40.7037 2.59304C40.5181 2.84825 40.4252 3.13826 40.4252 3.46307C40.4252 3.73485 40.4899 3.96851 40.6191 4.16406C40.7517 4.3563 40.9208 4.51705 41.1262 4.64631C41.3317 4.77225 41.5472 4.87666 41.7725 4.95952C41.9979 5.03906 42.2051 5.10369 42.394 5.15341L43.4281 5.43182C43.6932 5.50142 43.9882 5.59754 44.313 5.72017C44.6412 5.8428 44.9544 6.01018 45.2527 6.2223C45.5543 6.43111 45.8029 6.69957 45.9984 7.0277C46.194 7.35582 46.2917 7.75852 46.2917 8.2358C46.2917 8.78598 46.1476 9.28314 45.8592 9.72727C45.5742 10.1714 45.1565 10.5244 44.6064 10.7862C44.0595 11.0481 43.3949 11.179 42.6127 11.179C41.8836 11.179 41.2522 11.0613 40.7186 10.826C40.1883 10.5907 39.7707 10.2625 39.4657 9.84162C39.1641 9.42069 38.9934 8.93182 38.9537 8.375H40.2264C40.2595 8.75947 40.3888 9.07765 40.6142 9.32955C40.8429 9.57812 41.1312 9.76373 41.4792 9.88636C41.8306 10.0057 42.2084 10.0653 42.6127 10.0653C43.0834 10.0653 43.506 9.98911 43.8805 9.83665C44.255 9.68087 44.5517 9.46544 44.7704 9.19034C44.9892 8.91193 45.0985 8.58712 45.0985 8.21591C45.0985 7.87784 45.0041 7.60275 44.8152 7.39062C44.6262 7.1785 44.3777 7.00616 44.0694 6.87358C43.7612 6.741 43.4281 6.625 43.0701 6.52557L41.8173 6.16761C41.0218 5.93892 40.3921 5.61245 39.9281 5.18821C39.4641 4.76397 39.2321 4.20881 39.2321 3.52273C39.2321 2.95265 39.3862 2.45549 39.6944 2.03125C40.006 1.60369 40.4236 1.27225 40.9473 1.03693C41.4743 0.798295 42.0626 0.678977 42.7122 0.678977C43.3684 0.678977 43.9518 0.796638 44.4622 1.03196C44.9726 1.26397 45.377 1.58215 45.6752 1.98651C45.9769 2.39086 46.1359 2.8499 46.1525 3.36364H44.9593ZM47.4439 0.818182H48.8558L51.6797 5.57102H51.799L54.6229 0.818182H56.0348L52.3558 6.80398V11H51.1229V6.80398L47.4439 0.818182ZM63.1976 3.36364C63.138 2.85985 62.896 2.46875 62.4718 2.19034C62.0475 1.91193 61.5272 1.77273 60.9107 1.77273C60.4599 1.77273 60.0655 1.84564 59.7275 1.99148C59.3927 2.13731 59.1309 2.33783 58.9419 2.59304C58.7563 2.84825 58.6635 3.13826 58.6635 3.46307C58.6635 3.73485 58.7282 3.96851 58.8574 4.16406C58.99 4.3563 59.159 4.51705 59.3645 4.64631C59.57 4.77225 59.7855 4.87666 60.0108 4.95952C60.2362 5.03906 60.4434 5.10369 60.6323 5.15341L61.6664 5.43182C61.9315 5.50142 62.2265 5.59754 62.5513 5.72017C62.8794 5.8428 63.1926 6.01018 63.4909 6.2223C63.7926 6.43111 64.0411 6.69957 64.2367 7.0277C64.4322 7.35582 64.53 7.75852 64.53 8.2358C64.53 8.78598 64.3858 9.28314 64.0975 9.72727C63.8124 10.1714 63.3948 10.5244 62.8446 10.7862C62.2978 11.0481 61.6332 11.179 60.851 11.179C60.1219 11.179 59.4905 11.0613 58.9569 10.826C58.4266 10.5907 58.0089 10.2625 57.704 9.84162C57.4024 9.42069 57.2317 8.93182 57.1919 8.375H58.4647C58.4978 8.75947 58.6271 9.07765 58.8525 9.32955C59.0811 9.57812 59.3695 9.76373 59.7175 9.88636C60.0688 10.0057 60.4467 10.0653 60.851 10.0653C61.3217 10.0653 61.7443 9.98911 62.1188 9.83665C62.4933 9.68087 62.79 9.46544 63.0087 9.19034C63.2275 8.91193 63.3368 8.58712 63.3368 8.21591C63.3368 7.87784 63.2424 7.60275 63.0534 7.39062C62.8645 7.1785 62.6159 7.00616 62.3077 6.87358C61.9995 6.741 61.6664 6.625 61.3084 6.52557L60.0556 6.16761C59.2601 5.93892 58.6304 5.61245 58.1664 5.18821C57.7024 4.76397 57.4703 4.20881 57.4703 3.52273C57.4703 2.95265 57.6245 2.45549 57.9327 2.03125C58.2443 1.60369 58.6619 1.27225 59.1855 1.03693C59.7125 0.798295 60.3008 0.678977 60.9505 0.678977C61.6067 0.678977 62.19 0.796638 62.7005 1.03196C63.2109 1.26397 63.6152 1.58215 63.9135 1.98651C64.2151 2.39086 64.3742 2.8499 64.3908 3.36364H63.1976Z" fill="white"/>
</svg>
