<svg width="551" height="89" viewBox="0 0 551 89" fill="none" xmlns="http://www.w3.org/2000/svg">
<path d="M0.68 84.52V79.272H40.104C45.9067 79.272 48.808 76.3707 48.808 70.568V60.2C48.808 55.336 46.632 52.4773 42.28 51.624L14.76 45.992C5.37333 44.1147 0.68 37.8427 0.68 27.176V20.264C0.68 7.208 7.208 0.679993 20.264 0.679993H51.24L57 5.16V10.408H20.136C14.3333 10.408 11.432 13.3093 11.432 19.112V27.816C11.432 32.68 13.608 35.5387 17.96 36.392L45.48 41.896C54.8667 43.7733 59.56 50.088 59.56 60.84V69.416C59.56 82.472 53.032 89 39.976 89H6.44L0.68 84.52ZM93.234 89C80.3487 89 73.906 82.5573 73.906 69.672C73.906 56.7867 80.3487 50.344 93.234 50.344H116.658V40.36C116.658 34.3867 113.671 31.4 107.698 31.4H80.306V26.28L85.426 22.44H107.698C120.498 22.44 126.898 28.84 126.898 41.64V89H93.234ZM84.146 71.08C84.146 77.0533 87.1327 80.04 93.106 80.04H116.658V58.664H93.106C87.1327 58.664 84.146 61.6507 84.146 67.624V71.08ZM146.865 89V22.44H182.705C195.505 22.44 201.905 28.84 201.905 41.64V89H191.665V40.36C191.665 34.3867 188.678 31.4 182.705 31.4H157.105V89H146.865ZM221.353 69.8V0.679993H231.593V22.44H255.913V31.4H231.593V71.08C231.593 77.0533 234.58 80.04 240.553 80.04H257.193V85.16L252.073 89H240.553C227.753 89 221.353 82.6 221.353 69.8ZM270.966 69.8V41.64C270.966 28.84 277.366 22.44 290.166 22.44H306.806C319.606 22.44 326.006 28.84 326.006 41.64V59.688H281.206V71.08C281.206 77.0533 284.193 80.04 290.166 80.04H323.446V85.16L318.326 89H290.166C277.366 89 270.966 82.6 270.966 69.8ZM281.206 51.368H315.766V40.36C315.766 34.3867 312.779 31.4 306.806 31.4H290.166C284.193 31.4 281.206 34.3867 281.206 40.36V51.368Z" fill="white"/>
<path d="M342.93 84.52V79.272H382.354C388.157 79.272 391.058 76.3707 391.058 70.568V60.2C391.058 55.336 388.882 52.4773 384.53 51.624L357.01 45.992C347.623 44.1147 342.93 37.8427 342.93 27.176V20.264C342.93 7.208 349.458 0.679993 362.514 0.679993H393.49L399.25 5.16V10.408H362.386C356.583 10.408 353.682 13.3093 353.682 19.112V27.816C353.682 32.68 355.858 35.5387 360.21 36.392L387.73 41.896C397.117 43.7733 401.81 50.088 401.81 60.84V69.416C401.81 82.472 395.282 89 382.226 89H348.69L342.93 84.52ZM412.06 2.98399L413.468 0.679993H422.556L446.62 45.352L470.684 0.679993H479.772L481.18 2.98399L451.996 56.232V89H441.244V56.232L412.06 2.98399ZM491.43 84.52V79.272H530.854C536.657 79.272 539.558 76.3707 539.558 70.568V60.2C539.558 55.336 537.382 52.4773 533.03 51.624L505.51 45.992C496.123 44.1147 491.43 37.8427 491.43 27.176V20.264C491.43 7.208 497.958 0.679993 511.014 0.679993H541.99L547.75 5.16V10.408H510.886C505.083 10.408 502.182 13.3093 502.182 19.112V27.816C502.182 32.68 504.358 35.5387 508.71 36.392L536.23 41.896C545.617 43.7733 550.31 50.088 550.31 60.84V69.416C550.31 82.472 543.782 89 530.726 89H497.19L491.43 84.52Z" fill="#FF5757"/>
</svg>
